<?xml version="1.0" encoding="UTF-8"?>
<!DOCTYPE svg PUBLIC "-//W3C//DTD SVG 1.1//EN" "http://www.w3.org/Graphics/SVG/1.1/DTD/svg11.dtd">
<svg version="1.1" xmlns="http://www.w3.org/2000/svg" xmlns:xlink="http://www.w3.org/1999/xlink" x="0" y="0" width="800" height="800" viewBox="0, 0, 800, 800">
  <g id="Layer_11">
    <g>
      <path d="M400.732,775 C193.625,775 25.732,607.107 25.732,400 C25.732,192.893 193.625,25 400.732,25 C607.838,25 775.732,192.893 775.732,400 C775.732,607.107 607.838,775 400.732,775 z" fill="#F3EEE0"/>
      <path d="M400.732,775 C193.625,775 25.732,607.107 25.732,400 C25.732,192.893 193.625,25 400.732,25 C607.838,25 775.732,192.893 775.732,400 C775.732,607.107 607.838,775 400.732,775 z" fill-opacity="0" stroke="#20441A" stroke-width="12"/>
    </g>
  </g>
  <g id="Layer_13">
    <g>
      <path d="M311.933,370.947 L400.732,400 L400.717,400.015 L179.761,620.971 L311.933,370.947" fill="#4B8CC3" id="path2122"/>
      <path d="M429.784,488.798 L400.732,400 L400.717,400.015 L179.761,620.971 L429.784,488.798" fill="#20441A" id="path5805"/>
      <path d="M489.53,429.053 L400.732,400 L400.746,399.985 L621.703,179.029 L489.53,429.053" fill="#4B8CC3" id="path8724"/>
      <path d="M371.679,311.202 L400.732,400 L400.746,399.986 L621.703,179.029 L371.679,311.202" fill="#20441A" id="path8726"/>
      <path d="M371.679,488.798 L400.732,400 L400.746,400.015 L621.703,620.971 L371.679,488.798" fill="#4B8CC3" id="path8740"/>
      <path d="M489.53,370.947 L400.732,400 L400.746,400.015 L621.703,620.971 L489.53,370.947" fill="#20441A" id="path8742"/>
      <path d="M429.784,311.202 L400.732,400 L400.717,399.986 L179.761,179.029 L429.784,311.202" fill="#4A8BC3" id="path8746"/>
      <path d="M311.933,429.053 L400.732,400 L400.717,399.985 L179.761,179.029 L311.933,429.053" fill="#20441A" id="path8748"/>
    </g>
  </g>
  <g id="Layer_4">
    <g>
      <path d="M400.732,650 C262.661,650 150.732,538.071 150.732,400 C150.732,261.929 262.661,150 400.732,150 C538.803,150 650.732,261.929 650.732,400 C650.732,538.071 538.803,650 400.732,650 z" fill="#F4EFE1"/>
      <path d="M400.732,650 C262.661,650 150.732,538.071 150.732,400 C150.732,261.929 262.661,150 400.732,150 C538.803,150 650.732,261.929 650.732,400 C650.732,538.071 538.803,650 400.732,650 z" fill-opacity="0" stroke="#20441A" stroke-width="6"/>
    </g>
  </g>
  <g id="Layer_6">
    <g>
      <path d="M314.404,622.056 Q310.431,620.503 308.028,617.998 Q305.624,615.494 304.911,612.818 Q304.198,610.143 304.991,608.115 Q305.489,606.84 306.65,606.318 Q307.811,605.796 309.018,606.268 Q309.957,606.635 310.31,607.362 Q310.664,608.09 310.885,609.452 Q310.872,609.486 310.894,609.504 Q310.915,609.522 310.902,609.556 Q311.159,611.124 311.587,612.278 Q312.016,613.431 313.198,614.608 Q314.381,615.786 316.644,616.67 Q319.796,617.902 322.056,617.336 Q324.316,616.77 325.201,614.507 Q325.712,613.199 325.416,611.953 Q325.121,610.707 324.231,609.547 Q323.341,608.388 321.657,606.86 Q320.163,605.541 318.098,603.903 Q314.7,601.126 313.241,597.888 Q311.781,594.651 313.295,590.778 Q314.396,587.962 316.595,586.193 Q318.793,584.424 321.786,584.086 Q324.778,583.748 328.231,585.098 Q331.467,586.362 333.491,588.526 Q335.516,590.689 336.178,593.025 Q336.84,595.362 336.158,597.106 Q335.686,598.313 334.707,598.79 Q333.728,599.267 332.488,598.782 Q331.583,598.428 331.21,597.8 Q330.837,597.171 330.702,596.133 Q330.69,595.818 330.613,595.518 Q330.473,593.898 329.446,592.646 Q328.419,591.394 326.407,590.607 Q323.909,589.631 322.034,590.222 Q320.16,590.814 319.459,592.608 Q318.955,593.898 319.272,595.114 Q319.589,596.33 320.6,597.576 Q321.611,598.821 323.496,600.427 Q324.269,601.02 325.144,601.748 Q328.181,604.114 329.881,606.315 Q331.582,608.516 332.008,611.012 Q332.433,613.507 331.293,616.424 Q329.34,621.42 324.764,622.868 Q320.188,624.317 314.404,622.056 z" fill="#20441A"/>
      <path d="M348.585,632.475 Q344.651,631.592 341.855,629.009 Q339.059,626.426 337.945,622.8 Q336.831,619.174 337.706,615.275 L342.424,594.252 Q342.73,592.892 343.812,592.208 Q344.895,591.523 346.258,591.829 Q347.622,592.135 348.319,593.219 Q349.017,594.303 348.712,595.663 L343.962,616.827 Q343.456,619.079 344.041,621.117 Q344.626,623.156 346.165,624.599 Q347.704,626.042 349.917,626.539 Q352.13,627.035 354.139,626.389 Q356.148,625.742 357.565,624.153 Q358.982,622.563 359.488,620.312 L364.238,599.148 Q364.543,597.788 365.626,597.103 Q366.708,596.419 368.072,596.725 Q369.435,597.031 370.133,598.115 Q370.83,599.199 370.525,600.559 L365.807,621.582 Q364.929,625.491 362.374,628.288 Q359.819,631.085 356.169,632.222 Q352.519,633.358 348.585,632.475 z" fill="#20441A"/>
      <path d="M375.336,636.852 Q373.971,636.764 373.098,635.769 Q372.224,634.774 372.312,633.409 L374.371,601.616 Q374.462,600.215 375.455,599.359 Q376.449,598.504 377.814,598.592 L381.047,598.802 L378.779,633.828 Q378.69,635.193 377.696,636.067 Q376.701,636.94 375.336,636.852 z M378.205,614.834 L389.234,615.548 Q391.443,615.691 392.908,614.379 Q394.373,613.067 394.516,610.857 Q394.673,608.433 393.194,606.903 Q391.715,605.373 389.434,605.225 L378.764,604.534 L379.143,598.678 L390.028,599.383 Q393.369,599.6 395.937,601.173 Q398.504,602.746 399.868,605.359 Q401.232,607.973 401.024,611.189 Q400.818,614.368 399.174,616.778 Q397.53,619.187 394.863,620.403 Q392.195,621.62 389.106,621.419 L377.826,620.689 z M396.873,638.247 Q395.975,638.189 395.278,637.675 Q394.58,637.161 394.219,636.326 L387.713,620.103 L393.74,618.654 L399.951,633.883 Q400.235,634.514 400.184,635.305 Q400.099,636.616 399.15,637.474 Q398.202,638.333 396.873,638.247 z" fill="#20441A"/>
      <path d="M419.956,637.467 Q418.789,637.561 417.857,636.752 Q416.924,635.943 416.24,634.409 L402.29,603.83 Q401.874,602.924 402.073,601.933 Q402.273,600.941 403.027,600.221 Q403.781,599.501 405.001,599.402 Q406.006,599.32 406.836,599.858 Q407.665,600.395 408.062,601.284 L420.469,629.768 L418.262,629.948 L425.931,599.834 Q426.18,598.893 426.929,598.227 Q427.679,597.561 428.684,597.48 Q429.831,597.387 430.709,597.957 Q431.586,598.527 431.96,599.471 Q432.335,600.416 432.037,601.416 L423.184,633.846 Q422.751,635.416 421.937,636.394 Q421.122,637.372 419.956,637.467 z" fill="#20441A"/>
      <path d="M444.459,633.465 Q443.083,633.77 442.011,633.09 Q440.938,632.41 440.637,631.048 L433.845,600.381 Q433.544,599.02 434.232,597.941 Q434.92,596.862 436.281,596.56 L439.444,595.86 L447.617,632.765 L444.459,633.465 z M437.493,596.292 L453.293,592.793 Q454.541,592.516 455.517,593.139 Q456.494,593.761 456.77,595.009 Q457.047,596.257 456.424,597.234 Q455.802,598.21 454.554,598.487 L438.754,601.986 z M440.475,611.505 L454.834,608.325 Q456.081,608.049 457.061,608.685 Q458.041,609.321 458.322,610.59 Q458.603,611.86 457.98,612.836 Q457.358,613.813 456.11,614.089 L441.752,617.269 z M444.932,627.387 L460.82,623.868 Q462.067,623.592 463.044,624.214 Q464.021,624.837 464.298,626.085 Q464.574,627.333 463.951,628.31 Q463.328,629.286 462.081,629.562 L446.193,633.081 z" fill="#20441A"/>
      <path d="M483.836,622.946 Q482.589,623.413 481.384,622.864 Q480.179,622.316 479.712,621.069 L474.393,606.857 L458.819,596.157 Q457.977,595.55 457.642,594.656 Q457.188,593.443 457.737,592.238 Q458.286,591.034 459.499,590.579 Q460.224,590.308 460.997,590.422 Q461.77,590.537 462.4,590.935 L477.759,601.523 L474.42,602.715 L479.704,584.381 Q479.891,583.697 480.4,583.132 Q480.909,582.567 481.633,582.295 Q482.847,581.841 484.035,582.396 Q485.223,582.95 485.677,584.164 Q486.049,585.159 485.783,586.142 L480.42,604.678 L485.714,618.823 Q486.181,620.07 485.632,621.274 Q485.083,622.479 483.836,622.946 z" fill="#20441A"/>
    </g>
  </g>
  <g id="Layer_6_Copy">
    <g>
      <path d="M211.748,466.908 Q212.083,468.084 211.609,469.08 Q211.136,470.077 210.195,470.617 Q209.254,471.157 208.284,471.04 L174.252,467.945 Q172.845,467.804 172.022,467.149 Q171.199,466.495 170.868,465.335 Q170.537,464.176 170.894,463.194 Q171.25,462.212 172.371,461.351 L199.653,440.783 Q200.484,440.153 201.568,440.115 Q202.652,440.077 203.546,440.683 Q204.439,441.289 204.77,442.449 Q205.052,443.436 204.755,444.428 Q204.457,445.421 203.666,445.927 L177.559,464.25 L177.13,462.744 L208.975,464.535 Q209.914,464.548 210.69,465.234 Q211.466,465.921 211.748,466.908 z M195.562,468.174 L190.506,450.449 L196.114,448.85 L201.205,466.564 z" fill="#20441A"/>
      <path d="M202.216,429.914 Q202.316,431.315 201.482,432.276 Q200.649,433.238 199.248,433.338 L167.192,435.515 Q165.576,435.63 164.547,434.747 Q163.519,433.864 163.423,432.518 Q163.342,431.387 163.835,430.584 Q164.328,429.782 165.283,429.245 L194.372,413.294 L194.549,415.771 L163.563,404.627 Q162.564,404.283 161.933,403.525 Q161.302,402.767 161.219,401.6 Q161.121,400.235 162.016,399.242 Q162.911,398.249 164.239,398.155 L196.563,395.67 Q197.963,395.57 198.926,396.422 Q199.889,397.273 199.989,398.674 Q200.088,400.074 199.255,401.036 Q198.421,401.997 197.021,402.097 L171.04,403.679 L172.567,401.82 L197.678,410.82 Q199.531,411.483 200.269,412.224 Q201.008,412.965 201.091,414.132 Q201.174,415.299 200.522,416.149 Q199.87,416.998 198.184,417.913 L174.727,430.593 L172.859,429.192 L198.79,426.91 Q200.189,426.792 201.152,427.644 Q202.115,428.495 202.216,429.914 z" fill="#20441A"/>
      <path d="M200.668,382.626 Q200.49,384.024 199.488,384.804 Q198.487,385.584 197.103,385.408 L165.942,381.456 Q164.56,381.28 163.776,380.269 Q162.992,379.257 163.167,377.874 L163.575,374.66 L201.075,379.417 L200.668,382.626 z M163.324,376.642 L165.36,360.589 Q165.521,359.32 166.436,358.611 Q167.352,357.902 168.62,358.063 Q169.888,358.224 170.597,359.139 Q171.307,360.054 171.146,361.322 L169.109,377.376 z M178.651,378.967 L180.502,364.378 Q180.662,363.111 181.592,362.403 Q182.522,361.695 183.811,361.858 Q185.101,362.022 185.81,362.938 Q186.519,363.853 186.358,365.121 L184.508,379.71 z M195.105,380.129 L197.153,363.986 Q197.314,362.719 198.229,362.009 Q199.145,361.299 200.413,361.46 Q201.681,361.621 202.39,362.537 Q203.1,363.453 202.939,364.72 L200.891,380.863 z" fill="#20441A"/>
      <path d="M206.366,351.342 Q205.965,352.649 204.795,353.27 Q203.626,353.89 202.318,353.489 L171.859,344.147 Q170.516,343.735 169.913,342.571 Q169.31,341.407 169.711,340.099 L170.661,337.002 L204.218,347.294 Q205.526,347.695 206.146,348.865 Q206.767,350.034 206.366,351.342 z M185.604,343.467 L188.845,332.902 Q189.494,330.785 188.556,329.057 Q187.617,327.329 185.501,326.68 Q183.177,325.967 181.347,327.053 Q179.518,328.139 178.847,330.324 L175.712,340.546 L170.102,338.826 L173.3,328.397 Q174.282,325.196 176.405,323.061 Q178.529,320.926 181.387,320.202 Q184.244,319.478 187.325,320.423 Q190.371,321.358 192.336,323.514 Q194.301,325.67 194.869,328.546 Q195.436,331.422 194.528,334.381 L191.214,345.188 z M212.694,330.708 Q212.43,331.569 211.769,332.129 Q211.108,332.688 210.212,332.847 L192.926,335.433 L192.907,329.234 L209.159,326.706 Q209.839,326.576 210.596,326.808 Q211.852,327.193 212.468,328.314 Q213.085,329.435 212.694,330.708 z" fill="#20441A"/>
      <path d="M218.454,317.646 Q217.871,318.927 216.674,319.371 Q215.478,319.816 214.21,319.239 L184.651,305.795 Q183.383,305.218 182.934,304.017 Q182.486,302.817 183.064,301.545 Q183.642,300.274 184.846,299.814 Q186.05,299.353 187.318,299.929 L216.877,313.373 Q218.145,313.95 218.591,315.157 Q219.036,316.365 218.454,317.646 z" fill="#20441A"/>
      <path d="M231.48,293.946 Q228.941,298.069 224.836,299.705 Q220.731,301.341 215.932,300.553 Q211.133,299.764 206.443,296.876 Q201.63,293.912 198.857,289.868 Q196.084,285.824 195.838,281.434 Q195.593,277.044 198.075,273.014 Q199.123,271.312 200.583,269.971 Q202.044,268.629 203.742,267.794 Q205.714,266.789 207.89,266.723 Q210.065,266.657 211.491,267.535 Q212.594,268.214 212.909,269.317 Q213.223,270.42 212.506,271.585 Q211.949,272.489 211.063,272.778 Q210.176,273.067 208.943,272.942 Q207.155,272.686 205.679,273.384 Q204.203,274.082 203.08,275.906 Q201.541,278.404 201.9,281.203 Q202.258,284.003 204.326,286.651 Q206.394,289.299 209.889,291.451 Q213.414,293.623 216.713,294.291 Q220.011,294.959 222.594,294.044 Q225.176,293.129 226.639,290.753 Q227.838,288.807 227.659,286.815 Q227.479,284.823 225.888,283.082 Q224.991,282.17 224.821,281.125 Q224.651,280.08 225.246,279.114 Q225.916,278.026 227.152,277.719 Q228.387,277.413 229.444,278.064 Q231.528,279.348 232.675,281.914 Q233.822,284.48 233.59,287.688 Q233.358,290.896 231.48,293.946 z" fill="#20441A"/>
      <path d="M242.265,277.326 Q241.453,278.241 240.358,278.377 Q239.263,278.513 238.302,278.01 Q237.341,277.507 236.918,276.627 L221.235,246.265 Q220.599,245.003 220.708,243.957 Q220.818,242.911 221.618,242.009 Q222.418,241.107 223.437,240.88 Q224.456,240.653 225.785,241.134 L257.794,253.085 Q258.772,253.447 259.386,254.341 Q260.001,255.235 259.97,256.314 Q259.94,257.393 259.139,258.296 Q258.459,259.064 257.462,259.346 Q256.465,259.629 255.613,259.234 L226.129,247.068 L227.168,245.897 L242.775,273.712 Q243.269,274.511 243.107,275.535 Q242.946,276.558 242.265,277.326 z M232.497,264.358 L244.726,250.567 L249.089,254.436 L236.888,268.251 z" fill="#20441A"/>
      <path d="M268.54,249.654 Q267.433,250.518 266.17,250.362 Q264.907,250.206 264.044,249.099 L244.215,223.68 Q243.24,222.431 243.394,221.136 Q243.547,219.84 244.583,219.032 Q245.577,218.257 246.519,218.264 Q247.46,218.272 248.798,218.757 L278.558,229.192 L279.416,232.106 L261.498,209.9 Q260.621,208.804 260.798,207.524 Q260.975,206.244 262.082,205.381 Q263.189,204.517 264.452,204.673 Q265.716,204.829 266.579,205.936 L286.553,231.539 Q287.372,232.589 287.21,233.903 Q287.047,235.217 285.997,236.036 Q285.075,236.755 284.159,236.854 Q283.242,236.952 282.256,236.625 L249.896,225.344 L251.922,223.786 L269.124,245.135 Q270.003,246.231 269.832,247.505 Q269.662,248.779 268.54,249.654 z" fill="#20441A"/>
      <path d="M323.038,215.856 Q321.788,216.316 320.586,215.761 Q319.385,215.206 318.925,213.956 L307.898,183.988 Q307.438,182.738 307.993,181.536 Q308.549,180.335 309.798,179.875 L312.839,178.756 L324.972,211.731 Q325.432,212.98 324.877,214.182 Q324.322,215.384 323.038,215.856 z M316.9,195.732 L327.103,191.978 Q329.4,191.132 330.275,189.132 Q331.15,187.132 330.28,184.767 Q329.366,182.284 327.378,181.337 Q325.39,180.391 322.941,181.292 L312.94,184.972 L310.914,179.464 L321.251,175.661 Q324.428,174.492 327.471,174.945 Q330.515,175.398 332.865,177.353 Q335.214,179.307 336.364,182.432 Q337.527,185.592 337.05,188.596 Q336.573,191.6 334.709,193.859 Q332.845,196.118 330.007,197.162 L318.926,201.239 z" fill="#20441A"/>
      <path d="M354.372,205.168 Q352.989,205.436 351.935,204.729 Q350.881,204.021 350.615,202.652 L344.631,171.816 Q344.366,170.448 345.082,169.387 Q345.798,168.327 347.166,168.061 L350.347,167.444 L357.548,204.552 L354.372,205.168 z M348.385,167.825 L364.271,164.742 Q365.526,164.498 366.486,165.146 Q367.446,165.794 367.689,167.049 Q367.933,168.304 367.285,169.264 Q366.637,170.223 365.382,170.467 L349.496,173.55 z M350.967,183.111 L365.404,180.309 Q366.658,180.066 367.621,180.728 Q368.584,181.389 368.831,182.665 Q369.079,183.941 368.431,184.901 Q367.783,185.861 366.528,186.105 L352.091,188.906 z M355.005,199.104 L370.98,196.004 Q372.234,195.761 373.194,196.409 Q374.154,197.057 374.398,198.311 Q374.641,199.566 373.993,200.526 Q373.345,201.486 372.091,201.729 L356.116,204.829 z" fill="#20441A"/>
      <path d="M385.873,200.855 Q384.506,200.885 383.549,199.97 Q382.592,199.055 382.562,197.688 L381.853,165.836 Q381.822,164.432 382.737,163.493 Q383.652,162.555 385.02,162.524 L388.259,162.452 L389.04,197.544 Q389.071,198.911 388.156,199.868 Q387.241,200.824 385.873,200.855 z M386.82,178.671 L397.869,178.425 Q400.082,178.375 401.428,176.941 Q402.773,175.507 402.724,173.293 Q402.67,170.864 401.063,169.468 Q399.457,168.073 397.172,168.124 L386.482,168.362 L386.352,162.495 L397.257,162.252 Q400.604,162.177 403.299,163.522 Q405.993,164.866 407.579,167.351 Q409.165,169.836 409.236,173.058 Q409.307,176.243 407.879,178.787 Q406.45,181.33 403.898,182.773 Q401.347,184.216 398.252,184.285 L386.951,184.537 z M407.45,200.374 Q406.55,200.395 405.811,199.943 Q405.072,199.491 404.64,198.691 L396.749,183.095 L402.628,181.127 L410.138,195.76 Q410.475,196.364 410.493,197.156 Q410.522,198.47 409.652,199.407 Q408.781,200.345 407.45,200.374 z" fill="#20441A"/>
      <path d="M421.662,201.732 Q420.263,201.578 419.468,200.579 Q418.672,199.581 418.825,198.196 L422.384,165.919 Q422.537,164.535 423.538,163.734 Q424.539,162.934 425.927,163.087 Q427.315,163.24 428.129,164.24 Q428.942,165.241 428.789,166.626 L425.23,198.902 Q425.077,200.287 424.069,201.087 Q423.061,201.886 421.662,201.732 z" fill="#20441A"/>
      <path d="M437.503,203.992 Q436.208,203.684 435.513,202.557 Q434.819,201.43 435.126,200.135 L442.502,169.066 Q442.809,167.77 443.936,167.076 Q445.063,166.381 446.359,166.689 L449.511,167.437 L441.396,201.623 Q441.088,202.919 439.962,203.613 Q438.835,204.308 437.503,203.992 z M443.512,183.829 L454.09,186.34 Q456.471,186.905 458.306,185.722 Q460.141,184.539 460.723,182.087 Q461.334,179.512 460.201,177.624 Q459.067,175.737 456.528,175.134 L446.16,172.673 L447.516,166.963 L458.233,169.507 Q461.526,170.289 463.812,172.349 Q466.098,174.409 466.975,177.337 Q467.853,180.264 467.084,183.504 Q466.306,186.779 464.248,189.02 Q462.19,191.26 459.389,192.112 Q456.587,192.964 453.645,192.265 L442.156,189.538 z" fill="#20441A"/>
      <path d="M469.371,212.73 Q468.082,212.164 467.622,210.974 Q467.162,209.783 467.722,208.507 L480.777,178.775 Q481.337,177.499 482.532,177.035 Q483.726,176.571 485.005,177.132 Q486.284,177.694 486.76,178.892 Q487.237,180.09 486.677,181.365 L473.622,211.098 Q473.062,212.373 471.861,212.835 Q470.659,213.296 469.371,212.73 z M490.886,222.177 Q489.607,221.615 489.147,220.424 Q488.686,219.234 489.247,217.958 L502.301,188.225 Q502.861,186.95 504.056,186.486 Q505.252,186.022 506.53,186.583 Q507.809,187.144 508.269,188.335 Q508.729,189.526 508.169,190.801 L495.114,220.534 Q494.554,221.81 493.359,222.274 Q492.164,222.738 490.886,222.177 z M479.349,192.145 L500.396,201.386 L498.037,206.758 L476.99,197.518 z" fill="#20441A"/>
      <path d="M505.058,229.693 Q503.889,228.907 503.641,227.662 Q503.393,226.417 504.17,225.259 L521.679,199.181 Q522.456,198.024 523.711,197.777 Q524.967,197.53 526.124,198.307 L528.814,200.113 L507.744,231.496 L505.058,229.693 z M527.156,198.999 L540.591,208.02 Q541.652,208.732 541.875,209.868 Q542.099,211.005 541.386,212.066 Q540.674,213.127 539.537,213.351 Q538.401,213.574 537.34,212.861 L523.905,203.841 z M518.203,211.656 L530.413,219.853 Q531.474,220.565 531.689,221.714 Q531.905,222.862 531.181,223.941 Q530.456,225.02 529.319,225.244 Q528.183,225.467 527.122,224.755 L514.912,216.557 z M509.785,225.841 L523.295,234.912 Q524.355,235.624 524.579,236.76 Q524.803,237.897 524.09,238.958 Q523.378,240.019 522.241,240.243 Q521.104,240.466 520.044,239.754 L506.534,230.683 z" fill="#20441A"/>
      <path d="M530.448,248.784 Q529.437,247.809 529.414,246.537 Q529.391,245.265 530.365,244.254 L552.739,221.044 Q553.839,219.903 555.143,219.873 Q556.447,219.843 557.393,220.755 Q558.3,221.63 558.426,222.563 Q558.551,223.496 558.258,224.889 L552.117,255.821 L549.352,257.081 L568.815,236.216 Q569.777,235.193 571.069,235.188 Q572.361,235.184 573.371,236.158 Q574.382,237.132 574.406,238.405 Q574.429,239.678 573.455,240.689 L550.918,264.067 Q549.994,265.026 548.67,265.05 Q547.347,265.074 546.388,264.15 Q545.546,263.338 545.319,262.445 Q545.093,261.551 545.278,260.529 L551.892,226.903 L553.719,228.689 L535.004,248.726 Q534.043,249.75 532.758,249.76 Q531.472,249.771 530.448,248.784 z" fill="#20441A"/>
      <path d="M563.238,285.96 Q560.5,282.032 560.418,277.635 Q560.337,273.237 562.841,269.023 Q565.345,264.809 570.121,261.479 Q574.869,258.169 579.757,257.329 Q584.646,256.488 588.829,258.114 Q593.012,259.74 595.668,263.549 Q598.329,267.366 598.358,271.784 Q598.388,276.201 595.879,280.44 Q593.371,284.68 588.616,287.994 Q583.832,291.329 579.012,292.221 Q574.192,293.112 570.084,291.5 Q565.976,289.888 563.238,285.96 z M567.991,282.643 Q569.691,285.082 572.372,285.89 Q575.053,286.698 578.301,285.871 Q581.549,285.044 584.921,282.693 Q588.243,280.377 590.179,277.592 Q592.114,274.808 592.306,271.972 Q592.498,269.136 590.821,266.731 Q589.14,264.319 586.428,263.54 Q583.716,262.761 580.421,263.595 Q577.126,264.429 573.796,266.751 Q570.437,269.092 568.535,271.856 Q566.632,274.619 566.472,277.427 Q566.311,280.234 567.991,282.643 z" fill="#20441A"/>
      <path d="M578.186,309.165 Q577.648,307.868 578.135,306.692 Q578.621,305.516 579.918,304.978 L609.638,292.769 Q611.135,292.149 612.39,292.661 Q613.645,293.173 614.162,294.42 Q614.596,295.467 614.383,296.384 Q614.169,297.302 613.433,298.113 L590.886,322.45 L589.935,320.155 L622.854,320.922 Q623.911,320.932 624.75,321.451 Q625.589,321.971 626.036,323.051 Q626.561,324.315 626.026,325.54 Q625.492,326.765 624.262,327.276 L594.385,339.861 Q593.089,340.399 591.906,339.896 Q590.723,339.392 590.185,338.096 Q589.647,336.799 590.133,335.623 Q590.62,334.447 591.917,333.909 L616.062,324.187 L615.201,326.434 L588.533,325.842 Q586.566,325.8 585.631,325.33 Q584.696,324.861 584.248,323.78 Q583.8,322.7 584.149,321.687 Q584.499,320.675 585.809,319.274 L604.048,299.823 L606.263,300.56 L582.387,310.93 Q581.097,311.485 579.914,310.982 Q578.731,310.479 578.186,309.165 z" fill="#20441A"/>
      <path d="M594.62,353.539 Q594.345,352.157 595.049,351.1 Q595.752,350.043 597.12,349.772 L627.93,343.659 Q629.297,343.388 630.361,344.099 Q631.424,344.811 631.696,346.178 L632.326,349.356 L595.249,356.712 L594.62,353.539 z M631.937,347.396 L635.087,363.269 Q635.336,364.523 634.692,365.485 Q634.048,366.448 632.794,366.697 Q631.54,366.946 630.578,366.302 Q629.615,365.658 629.366,364.404 L626.217,348.531 z M616.662,350.042 L619.524,364.467 Q619.773,365.72 619.115,366.686 Q618.457,367.651 617.183,367.904 Q615.907,368.157 614.945,367.513 Q613.982,366.869 613.734,365.616 L610.871,351.19 z M600.686,354.147 L603.853,370.109 Q604.101,371.362 603.458,372.325 Q602.814,373.288 601.56,373.536 Q600.306,373.785 599.343,373.141 Q598.381,372.497 598.132,371.244 L594.965,355.282 z" fill="#20441A"/>
      <path d="M599.145,384.978 Q599.117,383.574 599.998,382.656 Q600.88,381.738 602.283,381.71 L634.515,381.058 Q636.099,381.026 637.044,381.925 Q637.989,382.824 638.016,384.138 Q638.041,385.398 637.471,386.147 Q636.901,386.897 635.711,387.677 L609.529,405.256 L606.682,404.198 L635.196,403.153 Q636.599,403.106 637.518,404.015 Q638.436,404.923 638.465,406.327 Q638.493,407.731 637.612,408.649 Q636.73,409.567 635.326,409.596 L602.86,410.252 Q601.529,410.279 600.574,409.362 Q599.62,408.445 599.593,407.113 Q599.569,405.944 600.039,405.151 Q600.509,404.359 601.361,403.765 L629.78,384.611 L629.814,387.166 L602.414,388.152 Q601.01,388.199 600.092,387.3 Q599.174,386.4 599.145,384.978 z" fill="#20441A"/>
      <path d="M598.826,419.917 Q599.025,418.709 599.879,418.011 Q600.733,417.312 601.814,417.226 Q602.896,417.14 603.722,417.659 L633.172,434.994 Q634.384,435.723 634.848,436.666 Q635.313,437.609 635.117,438.799 Q634.921,439.989 634.179,440.724 Q633.438,441.459 632.057,441.76 L598.603,448.704 Q597.583,448.919 596.586,448.49 Q595.59,448.061 595.041,447.132 Q594.491,446.202 594.688,445.012 Q594.855,443.999 595.547,443.229 Q596.24,442.459 597.171,442.338 L628.603,436.922 L628.349,438.467 L600.32,423.247 Q599.476,422.834 599.067,421.881 Q598.659,420.929 598.826,419.917 z M614.002,425.685 L611.003,443.871 L605.249,442.922 L608.212,424.73 z" fill="#20441A"/>
      <path d="M591.601,457.463 Q592.042,456.169 593.227,455.592 Q594.412,455.016 595.672,455.445 L625.9,465.74 Q627.16,466.169 627.745,467.357 Q628.329,468.545 627.9,469.805 Q627.47,471.066 626.277,471.667 Q625.083,472.269 623.823,471.839 L590.562,460.512 L591.601,457.463 z M596.588,460.91 L591.516,475.803 Q591.104,477.012 590.065,477.523 Q589.026,478.035 587.816,477.623 Q586.606,477.211 586.095,476.171 Q585.584,475.132 585.995,473.922 L591.067,459.03 z" fill="#20441A"/>
    </g>
  </g>
  <g id="Layer_13">
    <path d="M400.732,286.99 L497.998,456.15 L303.465,456.15 z" fill-opacity="0" stroke="#000000" stroke-width="8"/>
    <g>
      <path d="M400.732,400.038 L400.732,428.473" fill-opacity="0" stroke="#000000" stroke-width="5"/>
      <path d="M374.849,388.473 L400.732,400.038" fill-opacity="0" stroke="#000000" stroke-width="5"/>
      <path d="M426.614,388.473 L400.732,400.038" fill-opacity="0" stroke="#000000" stroke-width="5"/>
    </g>
  </g>
  <g id="Layer_16">
    <g>
      <path d="M340,522 Q400,472 460,522 Q400,572 340,522 z" fill-opacity="0" stroke="#2C3E50" stroke-width="3"/>
      <path d="M428,522 C428,537.464 415.464,550 400,550 C384.536,550 372,537.464 372,522 C372,506.536 384.536,494 400,494 C415.464,494 428,506.536 428,522 z" fill="#3498DB"/>
      <path d="M414,522 C414,529.732 407.732,536 400,536 C392.268,536 386,529.732 386,522 C386,514.268 392.268,508 400,508 C407.732,508 414,514.268 414,522 z" fill="#2C3E50"/>
      <path d="M415,514 C415,516.761 412.761,519 410,519 C407.239,519 405,516.761 405,514 C405,511.239 407.239,509 410,509 C412.761,509 415,511.239 415,514 z" fill="#FFFFFF" display="none"/>
    </g>
    <path d="M474.63,350.372 L492.43,350.372 L501.33,323.672 L510.23,377.072 L519.13,314.772 L528.03,385.972 L536.93,332.572 L545.83,350.372 L563.63,350.372" fill-opacity="0" stroke="#0136FF" stroke-width="5" stroke-linecap="round"/>
  </g>
  <g id="Layer_14">
    <g>
      <path d="M413.759,57.028 C413.759,64.222 407.927,70.055 400.732,70.055 C393.537,70.055 387.704,64.222 387.704,57.028 C387.704,49.833 393.537,44 400.732,44 C407.927,44 413.759,49.833 413.759,57.028 z" fill="#000000"/>
      <path d="M413.759,742.972 C413.759,750.167 407.927,756 400.732,756 C393.537,756 387.704,750.167 387.704,742.972 C387.704,735.778 393.537,729.945 400.732,729.945 C407.927,729.945 413.759,735.778 413.759,742.972 z" fill="#000000"/>
      <path d="M69.055,401.5 C69.055,408.695 63.222,414.528 56.028,414.528 C48.833,414.528 43,408.695 43,401.5 C43,394.305 48.833,388.472 56.028,388.472 C63.222,388.472 69.055,394.305 69.055,401.5 z" fill="#000000"/>
      <path d="M754,400 C754,407.195 748.167,413.028 740.972,413.028 C733.778,413.028 727.945,407.195 727.945,400 C727.945,392.805 733.778,386.972 740.972,386.972 C748.167,386.972 754,392.805 754,400 z" fill="#000000"/>
      <path d="M413.759,400 C413.759,407.195 407.927,413.028 400.732,413.028 C393.537,413.028 387.704,407.195 387.704,400 C387.704,392.805 393.537,386.972 400.732,386.972 C407.927,386.972 413.759,392.805 413.759,400 z" fill="#000000"/>
    </g>
  </g>
  <g id="Layer_11">
    <g>
      <path d="M279.507,303.641 L301.636,347.901 L286.883,347.901 L309.013,377.408 L250,377.408 L272.13,347.901 L257.377,347.901 z" fill="#193614"/>
      <path d="M275.818,377.408 L283.195,377.408 L283.195,388.473 L275.818,388.473 z" fill="#522C15"/>
    </g>
  </g>
  <g id="Layer_15">
    <g id="Cascadia">
      <path d="M313.891,700.973 Q309.755,699.781 307.375,696.656 Q304.995,693.531 304.526,689.234 Q304.057,684.936 305.413,680.232 Q306.804,675.404 309.605,672.065 Q312.407,668.726 316.108,667.469 Q319.809,666.213 323.852,667.377 Q325.558,667.869 327.055,668.8 Q328.552,669.731 329.673,670.986 Q331.004,672.435 331.579,674.282 Q332.154,676.129 331.742,677.559 Q331.423,678.666 330.553,679.199 Q329.684,679.731 328.516,679.394 Q327.608,679.133 327.15,678.443 Q326.691,677.753 326.504,676.667 Q326.297,675.075 325.347,673.977 Q324.398,672.88 322.568,672.353 Q320.062,671.631 317.75,672.605 Q315.439,673.579 313.664,675.982 Q311.889,678.384 310.88,681.889 Q309.861,685.426 310.075,688.41 Q310.289,691.394 311.688,693.387 Q313.087,695.38 315.471,696.067 Q317.423,696.629 319.086,696.001 Q320.749,695.372 321.861,693.595 Q322.427,692.609 323.282,692.214 Q324.137,691.82 325.105,692.099 Q326.197,692.413 326.754,693.398 Q327.311,694.383 327.006,695.444 Q326.403,697.534 324.479,699.128 Q322.555,700.722 319.753,701.288 Q316.95,701.854 313.891,700.973 z" fill="#29431F"/>
      <path d="M337.658,706.843 Q335.084,706.333 333.243,705.007 Q331.401,703.68 330.582,701.764 Q329.763,699.848 330.204,697.62 Q330.611,695.563 331.95,694.034 Q333.288,692.505 335.645,691.806 Q338.002,691.106 341.238,691.649 Q344.402,692.145 345.893,691.821 Q347.385,691.497 347.658,690.116 Q347.91,688.844 346.973,687.852 Q346.036,686.859 344.121,686.479 Q342.426,686.144 341.254,686.588 Q340.081,687.032 339.307,687.809 Q338.744,688.35 338.06,688.549 Q337.377,688.748 336.529,688.58 Q335.289,688.334 334.782,687.353 Q334.275,686.372 334.724,685.254 Q335.196,683.863 336.818,682.879 Q338.44,681.896 340.722,681.573 Q343.004,681.25 345.358,681.716 Q350.004,682.637 351.773,685.605 Q353.542,688.573 352.718,692.733 L350.719,702.824 Q350.617,703.342 350.701,703.579 Q350.785,703.816 351.111,703.979 Q351.859,704.322 352.309,705.096 Q352.758,705.871 352.569,706.828 Q352.342,707.974 351.331,708.548 Q350.321,709.123 348.801,708.806 Q347.36,708.504 346.629,707.462 Q345.897,706.42 346.195,704.913 L346.264,704.568 L346.122,704.54 Q344.645,706.156 342.459,706.775 Q340.273,707.394 337.658,706.843 z M339.212,702.127 Q340.782,702.438 342.295,702.004 Q343.808,701.569 344.873,700.476 Q345.938,699.382 346.239,697.86 L346.665,695.709 Q346.687,695.6 346.627,695.571 Q346.567,695.543 346.401,695.641 Q345.567,695.981 344.219,696.114 Q342.872,696.246 340.76,696.04 Q338.397,695.784 337.13,696.455 Q335.864,697.126 335.625,698.334 Q335.376,699.59 336.31,700.68 Q337.244,701.77 339.212,702.127 z" fill="#29431F"/>
      <path d="M365.744,711.433 Q362.706,711.1 360.525,709.856 Q358.343,708.611 357.285,706.95 Q356.227,705.29 356.264,703.781 Q356.325,702.629 357.151,701.914 Q357.978,701.2 359.06,701.318 Q359.903,701.411 360.413,701.828 Q360.922,702.246 361.315,702.917 Q361.436,703.139 361.553,703.393 Q362.276,704.728 363.391,705.574 Q364.505,706.42 366.383,706.625 Q368.307,706.836 369.396,706.223 Q370.485,705.61 370.615,704.417 Q370.707,703.573 370.222,702.933 Q369.737,702.293 368.646,701.674 Q367.554,701.056 365.254,700.016 Q363.091,699.039 361.576,698.028 Q360.061,697.017 359.129,695.459 Q358.197,693.9 358.428,691.785 Q358.654,689.717 359.948,688.112 Q361.243,686.508 363.407,685.698 Q365.572,684.889 368.308,685.188 Q371.027,685.485 372.963,686.622 Q374.899,687.759 375.819,689.284 Q376.738,690.809 376.58,692.256 Q376.467,693.291 375.788,693.909 Q375.109,694.526 374.107,694.417 Q373.232,694.321 372.628,693.885 Q372.024,693.448 371.515,692.653 L371.46,692.566 Q370.945,691.544 370.19,690.866 Q369.435,690.188 367.653,689.993 Q366,689.812 364.998,690.363 Q363.996,690.913 363.885,691.931 Q363.791,692.79 364.303,693.409 Q364.814,694.029 365.823,694.589 Q366.832,695.15 368.643,695.96 L369.283,696.287 Q371.81,697.465 373.307,698.49 Q374.805,699.515 375.588,700.896 Q376.37,702.277 376.151,704.281 Q375.908,706.508 374.671,708.248 Q373.434,709.988 371.164,710.882 Q368.893,711.777 365.744,711.433 z" fill="#29431F"/>
      <path d="M391.186,713.01 Q387.7,712.896 385.109,711.1 Q382.517,709.303 381.167,706.265 Q379.817,703.228 379.938,699.518 Q380.057,695.839 381.633,692.921 Q383.208,690.002 385.903,688.377 Q388.597,686.752 392.034,686.863 Q394.513,686.944 396.42,687.87 Q398.327,688.797 399.388,690.152 Q400.449,691.507 400.532,692.854 Q400.619,694.138 399.875,694.858 Q399.132,695.579 397.932,695.54 Q396.669,695.499 395.9,694.513 L395.84,694.415 Q395.719,694.187 395.427,693.825 Q394.83,692.99 393.942,692.457 Q393.055,691.923 391.823,691.883 Q388.977,691.791 387.34,693.907 Q385.702,696.023 385.583,699.701 Q385.461,703.459 387.023,705.655 Q388.584,707.85 391.382,707.941 Q393.142,707.998 394.297,707.18 Q395.452,706.361 396.268,704.899 Q396.727,704.065 397.278,703.619 Q397.828,703.172 398.612,703.198 Q399.843,703.238 400.565,704.189 Q401.286,705.141 401.085,706.4 Q400.775,708.07 399.428,709.627 Q398.081,711.184 395.937,712.139 Q393.793,713.094 391.186,713.01 z" fill="#29431F"/>
      <path d="M413.669,712.881 Q411.048,713.013 408.939,712.174 Q406.83,711.335 405.569,709.676 Q404.308,708.017 404.194,705.748 Q404.089,703.655 405.015,701.846 Q405.941,700.037 408.057,698.785 Q410.173,697.533 413.444,697.273 Q416.633,696.984 418.001,696.306 Q419.369,695.629 419.298,694.223 Q419.233,692.929 418.082,692.193 Q416.932,691.458 414.982,691.556 Q413.257,691.643 412.227,692.359 Q411.198,693.076 410.637,694.017 Q410.222,694.679 409.607,695.039 Q408.992,695.398 408.129,695.441 Q406.867,695.505 406.136,694.676 Q405.406,693.848 405.57,692.655 Q405.688,691.19 407.022,689.842 Q408.357,688.493 410.491,687.625 Q412.626,686.756 415.023,686.636 Q419.754,686.398 422.191,688.846 Q424.629,691.295 424.843,695.53 L425.359,705.805 Q425.386,706.332 425.525,706.541 Q425.664,706.751 426.02,706.829 Q426.829,706.98 427.454,707.622 Q428.078,708.263 428.127,709.238 Q428.186,710.405 427.346,711.208 Q426.505,712.011 424.954,712.073 Q423.483,712.131 422.52,711.298 Q421.557,710.466 421.48,708.932 L421.462,708.58 L421.318,708.588 Q420.278,710.514 418.308,711.647 Q416.338,712.779 413.669,712.881 z M414.028,707.928 Q415.626,707.848 416.988,707.059 Q418.35,706.269 419.117,704.949 Q419.884,703.629 419.806,702.079 L419.696,699.89 Q419.69,699.778 419.625,699.765 Q419.56,699.752 419.423,699.888 Q418.696,700.421 417.422,700.877 Q416.147,701.334 414.048,701.648 Q411.694,701.974 410.629,702.933 Q409.564,703.892 409.626,705.122 Q409.69,706.401 410.861,707.231 Q412.032,708.061 414.028,707.928 z" fill="#29431F"/>
      <path d="M442.332,710.337 Q439.006,710.812 436.37,709.33 Q433.734,707.848 432.1,705.068 Q430.466,702.287 429.979,698.881 Q429.488,695.444 430.355,692.298 Q431.223,689.151 433.406,687.013 Q435.59,684.875 438.932,684.397 Q441.45,684.037 443.377,684.796 Q445.304,685.555 446.881,687.204 L446.494,687.55 L444.946,676.717 Q444.778,675.545 445.45,674.649 Q446.122,673.753 447.262,673.59 Q448.435,673.422 449.331,674.094 Q450.227,674.766 450.394,675.938 L454.619,705.493 Q454.789,706.681 454.119,707.593 Q453.449,708.505 452.277,708.673 Q451.121,708.838 450.198,708.146 Q449.275,707.454 449.17,706.272 L449.018,704.872 L449.46,705.019 Q448.924,706.922 447.014,708.431 Q445.104,709.941 442.332,710.337 z M442.92,705.178 Q445.751,704.741 447.018,702.41 Q448.285,700.079 447.751,696.341 Q447.232,692.714 445.3,690.784 Q443.367,688.854 440.516,689.262 Q437.681,689.667 436.363,692.037 Q435.045,694.408 435.571,698.082 Q436.119,701.915 438.049,703.773 Q439.979,705.631 442.92,705.178 z" fill="#29431F"/>
      <path d="M464.629,706.115 Q463.456,706.368 462.51,705.737 Q461.564,705.106 461.321,703.98 L457.085,684.319 Q456.832,683.146 457.439,682.205 Q458.047,681.264 459.22,681.011 Q460.393,680.759 461.334,681.366 Q462.275,681.973 462.528,683.146 L466.764,702.807 Q467.007,703.933 466.405,704.898 Q465.802,705.862 464.629,706.115 z M458.593,678.102 Q460.001,677.799 460.611,676.759 Q461.222,675.719 460.888,674.17 Q460.544,672.575 459.565,671.902 Q458.585,671.23 457.177,671.533 Q455.77,671.836 455.154,672.853 Q454.538,673.869 454.882,675.465 Q455.216,677.013 456.201,677.709 Q457.185,678.405 458.593,678.102 z" fill="#29431F"/>
      <path d="M481.741,702.257 Q479.214,702.968 476.972,702.618 Q474.729,702.269 473.131,700.932 Q471.533,699.594 470.918,697.408 Q470.35,695.39 470.851,693.42 Q471.352,691.451 473.137,689.76 Q474.922,688.069 478.053,687.089 Q481.099,686.098 482.282,685.134 Q483.464,684.169 483.083,682.814 Q482.732,681.567 481.447,681.106 Q480.162,680.644 478.283,681.173 Q476.62,681.641 475.775,682.568 Q474.931,683.496 474.593,684.538 Q474.335,685.276 473.816,685.763 Q473.296,686.25 472.465,686.484 Q471.247,686.826 470.351,686.181 Q469.455,685.535 469.35,684.336 Q469.14,682.882 470.141,681.27 Q471.142,679.659 473.031,678.338 Q474.919,677.017 477.229,676.366 Q481.788,675.083 484.71,676.929 Q487.631,678.775 488.78,682.857 L491.567,692.76 Q491.71,693.268 491.892,693.441 Q492.074,693.614 492.438,693.611 Q493.261,693.579 494.012,694.066 Q494.764,694.552 495.028,695.492 Q495.345,696.617 494.704,697.586 Q494.063,698.556 492.564,698.961 Q491.143,699.345 490.019,698.747 Q488.895,698.149 488.479,696.67 L488.383,696.332 L488.245,696.371 Q487.659,698.48 485.99,700.022 Q484.321,701.564 481.741,702.257 z M480.99,697.348 Q482.531,696.915 483.683,695.842 Q484.836,694.77 485.29,693.312 Q485.744,691.855 485.324,690.361 L484.73,688.251 Q484.7,688.143 484.634,688.145 Q484.568,688.147 484.464,688.31 Q483.874,688.991 482.733,689.719 Q481.591,690.447 479.615,691.22 Q477.392,692.062 476.566,693.233 Q475.741,694.405 476.075,695.59 Q476.421,696.823 477.748,697.372 Q479.074,697.921 480.99,697.348 z" fill="#29431F"/>
    </g>
  </g>
  <g id="Layer_13_Copy">
    <g id="Region_10_">
      <path d="M306.109,136.723 Q304.951,137.093 303.905,136.553 Q302.86,136.014 302.49,134.856 L293.87,107.88 Q293.49,106.691 294.034,105.66 Q294.578,104.63 295.736,104.26 L298.48,103.383 L307.976,133.103 Q308.346,134.261 307.807,135.307 Q307.268,136.353 306.109,136.723 z M301.334,117.572 L310.691,114.582 Q312.566,113.983 313.352,112.421 Q314.138,110.86 313.539,108.985 Q312.882,106.928 311.161,106.142 Q309.44,105.357 307.505,105.975 L298.452,108.868 L296.864,103.899 L306.1,100.948 Q308.935,100.042 311.57,100.51 Q314.206,100.978 316.183,102.698 Q318.16,104.418 319.032,107.146 Q319.894,109.844 319.316,112.372 Q318.738,114.899 316.926,116.772 Q315.114,118.644 312.492,119.482 L302.922,122.54 z M324.383,130.883 Q323.621,131.127 322.877,130.928 Q322.133,130.729 321.564,130.156 L310.912,118.845 L315.429,115.688 L325.513,126.273 Q325.953,126.703 326.167,127.374 Q326.523,128.487 326.017,129.505 Q325.511,130.523 324.383,130.883 z" fill="#29431F"/>
      <path d="M343.038,126.71 Q339.69,127.423 336.669,126.488 Q333.648,125.553 331.496,123.017 Q329.345,120.481 328.516,116.584 Q327.736,112.923 328.513,109.657 Q329.29,106.391 331.485,104.174 Q333.679,101.957 336.934,101.264 Q340.127,100.584 342.961,101.641 Q345.795,102.698 347.699,104.959 Q349.604,107.22 350.2,110.021 Q350.54,111.618 349.881,112.674 Q349.223,113.73 347.549,114.086 L331.617,117.478 L330.758,113.44 L346.673,110.052 L345.112,111.939 Q344.409,108.866 342.506,107.267 Q340.604,105.668 338.006,106.221 Q335.377,106.781 334.276,109.027 Q333.176,111.274 333.966,114.983 Q334.852,119.145 337.006,120.772 Q339.16,122.399 341.992,121.796 Q343.823,121.407 344.829,120.407 Q345.835,119.408 346.357,118.021 L346.421,117.86 Q346.761,117.15 347.216,116.676 Q347.672,116.203 348.439,116.04 Q349.55,115.804 350.419,116.428 Q351.288,117.053 351.466,118.193 Q351.673,119.784 350.763,121.541 Q349.853,123.297 347.862,124.702 Q345.871,126.107 343.038,126.71 z" fill="#29431F"/>
      <path d="M367.193,122.483 Q363.982,122.843 361.421,121.399 Q358.861,119.955 357.278,117.186 Q355.696,114.417 355.297,110.855 Q354.911,107.405 355.851,104.305 Q356.792,101.205 359,99.146 Q361.209,97.088 364.485,96.721 Q367.395,96.395 369.627,97.424 Q371.86,98.454 372.75,100.078 L372.296,100.337 L372.091,98.944 Q371.892,97.742 372.598,96.858 Q373.304,95.974 374.497,95.84 Q375.674,95.709 376.549,96.408 Q377.424,97.106 377.561,98.331 L379.914,119.335 Q380.582,125.298 377.569,128.437 Q374.556,131.576 369.452,132.148 Q366.701,132.456 364.282,131.922 Q361.864,131.388 360.318,130.24 Q359.602,129.741 359.305,129.026 Q359.007,128.31 359.206,127.5 Q359.322,126.521 360.137,125.962 Q360.952,125.404 362.053,125.603 Q362.391,125.597 363.246,125.904 Q364.62,126.523 365.817,126.791 Q367.014,127.06 368.859,126.853 Q372.102,126.49 373.483,124.661 Q374.864,122.832 374.524,119.939 L374.214,117.317 L374.644,117.559 Q373.476,119.638 371.599,120.919 Q369.722,122.2 367.193,122.483 z M367.913,117.266 Q370.807,116.942 372.199,114.637 Q373.591,112.332 373.176,108.627 Q372.77,105.002 370.903,103.134 Q369.035,101.266 366.189,101.585 Q364.233,101.804 362.95,102.858 Q361.668,103.911 361.14,105.741 Q360.613,107.571 360.896,110.099 Q361.313,113.82 363.174,115.704 Q365.035,117.589 367.913,117.266 z" fill="#29431F"/>
      <path d="M389.862,120.688 Q388.663,120.731 387.842,119.944 Q387.021,119.158 386.979,118.006 L386.254,97.907 Q386.211,96.708 386.974,95.888 Q387.736,95.068 388.936,95.025 Q390.135,94.981 390.955,95.744 Q391.775,96.507 391.818,97.707 L392.544,117.805 Q392.585,118.957 391.823,119.801 Q391.061,120.645 389.862,120.688 z M388.828,92.051 Q390.267,91.999 391.051,91.082 Q391.834,90.165 391.777,88.582 Q391.718,86.951 390.872,86.117 Q390.025,85.283 388.586,85.335 Q387.147,85.387 386.363,86.28 Q385.578,87.173 385.637,88.804 Q385.694,90.387 386.542,91.245 Q387.389,92.103 388.828,92.051 z" fill="#29431F"/>
      <path d="M410.173,115.916 Q413.147,116.024 414.862,113.981 Q416.578,111.938 416.719,108.069 Q416.855,104.311 415.284,102.165 Q413.713,100.018 410.755,99.911 Q407.829,99.804 406.154,101.833 Q404.48,103.861 404.343,107.618 Q404.202,111.488 405.717,113.648 Q407.231,115.809 410.173,115.916 z M409.988,120.984 Q406.535,120.859 403.934,119.083 Q401.332,117.307 399.947,114.255 Q398.561,111.203 398.698,107.413 Q398.834,103.687 400.436,100.784 Q402.039,97.88 404.762,96.298 Q407.485,94.716 410.939,94.842 Q414.393,94.967 417.042,96.745 Q419.691,98.522 421.094,101.551 Q422.497,104.58 422.363,108.274 Q422.225,112.063 420.605,115.006 Q418.985,117.949 416.213,119.53 Q413.442,121.11 409.988,120.984 z" fill="#29431F"/>
      <path d="M429.839,122.062 Q428.681,121.903 427.997,121.003 Q427.313,120.102 427.471,118.944 L430.201,98.986 Q430.359,97.828 431.26,97.144 Q432.161,96.46 433.319,96.619 Q434.444,96.772 435.144,97.675 Q435.844,98.578 435.685,99.736 L432.956,119.694 Q432.798,120.852 431.881,121.534 Q430.964,122.216 429.839,122.062 z M434.967,100.381 Q436.723,98.764 438.723,98.076 Q440.722,97.389 443.036,97.705 Q445.684,98.067 447.59,99.483 Q449.496,100.898 450.358,103.212 Q451.22,105.526 450.815,108.491 L448.983,121.886 Q448.825,123.043 447.94,123.73 Q447.055,124.416 445.897,124.258 Q444.74,124.099 444.056,123.199 Q443.372,122.298 443.53,121.14 L445.286,108.299 Q445.614,105.906 444.569,104.447 Q443.525,102.988 441.259,102.678 Q438.786,102.34 436.896,103.519 Q435.007,104.698 434.714,106.838 L434.096,106.753 L434.967,100.381 z" fill="#29431F"/>
      <path d="M479.934,101.938 L482.496,102.638 L476.45,106.011 Q475.477,106.475 474.81,106.608 Q474.144,106.741 473.557,106.581 Q472.538,106.303 472.001,105.327 Q471.463,104.351 471.754,103.286 Q471.893,102.776 472.252,102.344 Q472.611,101.911 473.109,101.666 L480.716,97.922 Q481.599,97.483 482.276,97.344 Q482.952,97.206 483.677,97.404 Q484.87,97.713 485.448,98.725 Q486.026,99.737 485.701,100.926 L478.243,128.229 L472.933,126.778 z M467.89,128.42 Q466.795,128.121 466.238,127.122 Q465.681,126.124 465.98,125.028 Q466.28,123.933 467.267,123.357 Q468.254,122.78 469.349,123.08 L482.545,126.684 Q483.642,126.984 484.198,127.982 Q484.755,128.98 484.456,130.075 Q484.157,131.171 483.17,131.748 Q482.183,132.324 481.087,132.025 L467.89,128.42 z" fill="#29431F"/>
      <path d="M499.799,139.32 Q495.871,137.811 493.858,134.75 Q491.846,131.689 491.805,127.491 Q491.763,123.293 493.644,118.394 Q495.537,113.465 498.375,110.382 Q501.213,107.299 504.757,106.371 Q508.301,105.444 512.23,106.953 Q516.158,108.462 518.171,111.523 Q520.183,114.584 520.227,118.774 Q520.272,122.965 518.379,127.894 Q516.498,132.792 513.657,135.884 Q510.816,138.975 507.272,139.902 Q503.728,140.829 499.799,139.32 z M501.669,134.451 Q505.358,135.867 508.215,133.717 Q511.072,131.566 513.241,125.92 Q515.415,120.26 514.737,116.734 Q514.06,113.209 510.371,111.793 Q506.712,110.387 503.849,112.553 Q500.986,114.718 498.812,120.379 Q496.644,126.025 497.327,129.535 Q498.01,133.045 501.669,134.451 z" fill="#29431F"/>
    </g>
  </g>
</svg>
