<?xml version="1.0" encoding="UTF-8"?>
<!DOCTYPE svg PUBLIC "-//W3C//DTD SVG 1.1//EN" "http://www.w3.org/Graphics/SVG/1.1/DTD/svg11.dtd">
<svg version="1.1" xmlns="http://www.w3.org/2000/svg" xmlns:xlink="http://www.w3.org/1999/xlink" x="0" y="0" width="800" height="800" viewBox="0, 0, 800, 800">
  <defs>
    <radialGradient id="Gradient_1" gradientUnits="userSpaceOnUse" cx="399" cy="516.84" r="24.992">
      <stop offset="0" stop-color="#FFFFFF"/>
      <stop offset="0.705" stop-color="#82A7C6"/>
      <stop offset="1" stop-color="#4B8CC3"/>
    </radialGradient>
  </defs>
  <g id="Layer_11">
    <g>
      <path d="M400.732,775 C193.625,775 25.732,607.107 25.732,400 C25.732,192.893 193.625,25 400.732,25 C607.838,25 775.732,192.893 775.732,400 C775.732,607.107 607.838,775 400.732,775 z" fill="#F4EFE1"/>
      <path d="M400.732,775 C193.625,775 25.732,607.107 25.732,400 C25.732,192.893 193.625,25 400.732,25 C607.838,25 775.732,192.893 775.732,400 C775.732,607.107 607.838,775 400.732,775 z" fill-opacity="0" stroke="#20441A" stroke-width="12"/>
    </g>
  </g>
  <g id="Layer_13">
    <g>
      <path d="M311.933,370.947 L400.732,400 L400.717,400.015 L179.761,620.971 L311.933,370.947" fill="#4B8CC3" id="path2122"/>
      <path d="M429.784,488.798 L400.732,400 L400.717,400.015 L179.761,620.971 L429.784,488.798" fill="#20441A" id="path5805"/>
      <path d="M489.53,429.053 L400.732,400 L400.746,399.985 L621.703,179.029 L489.53,429.053" fill="#4B8CC3" id="path8724"/>
      <path d="M371.679,311.202 L400.732,400 L400.746,399.985 L621.703,179.029 L371.679,311.202" fill="#20441A" id="path8726"/>
      <path d="M371.679,488.798 L400.732,400 L400.746,400.015 L621.703,620.971 L371.679,488.798" fill="#4B8CC3" id="path8740"/>
      <path d="M489.53,370.947 L400.732,400 L400.746,400.015 L621.703,620.971 L489.53,370.947" fill="#20441A" id="path8742"/>
      <path d="M429.784,311.202 L400.732,400 L400.717,399.985 L179.761,179.029 L429.784,311.202" fill="#4B8CC3" id="path8746"/>
      <path d="M311.933,429.053 L400.732,400 L400.717,399.985 L179.761,179.029 L311.933,429.053" fill="#20441A" id="path8748"/>
    </g>
  </g>
  <g id="Layer_4">
    <g>
      <path d="M400.732,650 C262.661,650 150.732,538.071 150.732,400 C150.732,261.929 262.661,150 400.732,150 C538.803,150 650.732,261.929 650.732,400 C650.732,538.071 538.803,650 400.732,650 z" fill="#F4EFE1"/>
      <path d="M400.732,650 C262.661,650 150.732,538.071 150.732,400 C150.732,261.929 262.661,150 400.732,150 C538.803,150 650.732,261.929 650.732,400 C650.732,538.071 538.803,650 400.732,650 z" fill-opacity="0" stroke="#20441A" stroke-width="6"/>
    </g>
  </g>
  <g id="Layer_13">
    <path d="M400,550 C317.157,550 250,482.843 250,400 C250,317.157 317.157,250 400,250 C482.843,250 550,317.157 550,400 C550,482.843 482.843,550 400,550 z" fill="#F4EFE1"/>
  </g>
  <g id="Layer_15">
    <path d="M400,152.5 C536.69,152.5 647.5,263.31 647.5,400 C647.5,536.69 536.69,647.5 400,647.5 C263.31,647.5 152.5,536.69 152.5,400 C152.5,263.31 263.31,152.5 400,152.5 z M400,216.85 C298.849,216.85 216.85,298.849 216.85,400 C216.85,501.151 298.849,583.15 400,583.15 C501.151,583.15 583.15,501.151 583.15,400 C583.15,298.849 501.151,216.85 400,216.85 z" fill="#F4EFE1"/>
  </g>
  <g id="Layer_6">
    <g>
      <path d="M310.542,620.516 Q306.596,618.894 304.237,616.347 Q301.878,613.801 301.212,611.114 Q300.545,608.426 301.373,606.412 Q301.894,605.146 303.063,604.645 Q304.233,604.143 305.432,604.636 Q306.364,605.019 306.705,605.753 Q307.046,606.486 307.243,607.852 Q307.229,607.885 307.251,607.904 Q307.273,607.922 307.259,607.956 Q307.488,609.529 307.896,610.689 Q308.304,611.85 309.466,613.048 Q310.628,614.246 312.876,615.17 Q316.006,616.457 318.275,615.93 Q320.545,615.404 321.469,613.156 Q322.003,611.857 321.729,610.606 Q321.455,609.355 320.586,608.18 Q319.716,607.006 318.059,605.449 Q316.588,604.104 314.552,602.43 Q311.203,599.594 309.8,596.331 Q308.397,593.069 309.979,589.223 Q311.128,586.426 313.358,584.696 Q315.587,582.965 318.585,582.68 Q321.582,582.394 325.012,583.804 Q328.225,585.125 330.211,587.323 Q332.197,589.522 332.819,591.869 Q333.44,594.217 332.728,595.949 Q332.235,597.147 331.248,597.607 Q330.261,598.067 329.029,597.561 Q328.13,597.191 327.768,596.556 Q327.406,595.921 327.289,594.88 Q327.283,594.566 327.211,594.265 Q327.1,592.642 326.095,591.372 Q325.089,590.102 323.092,589.281 Q320.611,588.261 318.727,588.82 Q316.842,589.378 316.11,591.16 Q315.583,592.441 315.879,593.663 Q316.175,594.884 317.164,596.147 Q318.153,597.41 320.01,599.049 Q320.773,599.654 321.634,600.398 Q324.63,602.817 326.292,605.047 Q327.953,607.278 328.335,609.78 Q328.717,612.283 327.526,615.179 Q325.487,620.14 320.886,621.509 Q316.285,622.877 310.542,620.516 z" fill="#20441A"/>
      <path d="M344.536,631.53 Q340.618,630.578 337.867,627.947 Q335.117,625.315 334.066,621.67 Q333.015,618.025 333.958,614.142 L339.043,593.205 Q339.372,591.85 340.467,591.185 Q341.561,590.519 342.919,590.849 Q344.277,591.179 344.955,592.275 Q345.634,593.371 345.305,594.725 L340.186,615.803 Q339.642,618.046 340.191,620.094 Q340.74,622.143 342.254,623.613 Q343.768,625.082 345.971,625.617 Q348.175,626.153 350.195,625.541 Q352.215,624.93 353.66,623.365 Q355.104,621.801 355.649,619.558 L360.768,598.481 Q361.097,597.126 362.191,596.461 Q363.286,595.795 364.643,596.125 Q366.001,596.455 366.68,597.551 Q367.358,598.647 367.029,600.001 L361.945,620.939 Q360.999,624.832 358.396,627.584 Q355.792,630.336 352.123,631.409 Q348.454,632.481 344.536,631.53 z" fill="#20441A"/>
      <path d="M371.206,636.373 Q369.843,636.261 368.987,635.251 Q368.131,634.241 368.243,632.878 L370.856,601.125 Q370.972,599.726 371.98,598.888 Q372.988,598.05 374.351,598.162 L377.58,598.428 L374.701,633.409 Q374.589,634.773 373.579,635.629 Q372.569,636.485 371.206,636.373 z M374.459,614.408 L385.473,615.314 Q387.68,615.496 389.168,614.21 Q390.655,612.923 390.837,610.717 Q391.036,608.295 389.584,606.74 Q388.132,605.184 385.854,604.997 L375.198,604.12 L375.679,598.271 L386.55,599.166 Q389.887,599.441 392.427,601.058 Q394.966,602.676 396.284,605.313 Q397.603,607.95 397.338,611.161 Q397.077,614.337 395.391,616.717 Q393.705,619.098 391.017,620.267 Q388.329,621.437 385.244,621.183 L373.978,620.256 z M392.716,638.143 Q391.819,638.069 391.13,637.543 Q390.442,637.017 390.096,636.176 L383.873,619.842 L389.925,618.498 L395.869,633.834 Q396.142,634.47 396.077,635.259 Q395.969,636.569 395.006,637.411 Q394.043,638.252 392.716,638.143 z" fill="#20441A"/>
      <path d="M415.809,637.766 Q414.641,637.841 413.722,637.015 Q412.804,636.19 412.147,634.644 L398.733,603.826 Q398.332,602.913 398.549,601.925 Q398.766,600.938 399.532,600.231 Q400.299,599.524 401.521,599.446 Q402.527,599.382 403.347,599.934 Q404.166,600.486 404.548,601.381 L416.456,630.078 L414.246,630.218 L422.44,600.243 Q422.705,599.306 423.466,598.654 Q424.227,598.002 425.233,597.938 Q426.382,597.864 427.249,598.45 Q428.116,599.035 428.474,599.986 Q428.833,600.937 428.517,601.931 L419.099,634.202 Q418.639,635.764 417.808,636.728 Q416.976,637.692 415.809,637.766 z" fill="#20441A"/>
      <path d="M440.377,634.193 Q438.997,634.473 437.936,633.775 Q436.876,633.076 436.598,631.709 L430.343,600.928 Q430.066,599.562 430.772,598.495 Q431.479,597.428 432.845,597.151 L436.02,596.505 L443.548,633.548 L440.377,634.193 z M434.062,596.903 L449.92,593.681 Q451.173,593.426 452.138,594.066 Q453.104,594.705 453.358,595.958 Q453.613,597.21 452.974,598.176 Q452.334,599.141 451.081,599.396 L435.223,602.618 z M436.778,612.166 L451.19,609.237 Q452.442,608.983 453.41,609.636 Q454.379,610.29 454.638,611.563 Q454.897,612.837 454.257,613.803 Q453.617,614.768 452.365,615.023 L437.953,617.952 z M440.957,628.123 L456.904,624.883 Q458.156,624.628 459.122,625.268 Q460.088,625.907 460.342,627.16 Q460.597,628.412 459.957,629.378 Q459.317,630.344 458.065,630.598 L442.119,633.839 z" fill="#20441A"/>
      <path d="M479.933,624.362 Q478.677,624.807 477.482,624.238 Q476.287,623.668 475.842,622.413 L470.772,608.111 L455.387,597.141 Q454.555,596.519 454.236,595.62 Q453.803,594.398 454.373,593.204 Q454.943,592.009 456.164,591.576 Q456.894,591.317 457.664,591.445 Q458.435,591.573 459.058,591.982 L474.23,602.837 L470.871,603.97 L476.474,585.732 Q476.672,585.051 477.191,584.494 Q477.71,583.938 478.44,583.68 Q479.661,583.247 480.839,583.822 Q482.017,584.397 482.45,585.619 Q482.805,586.62 482.522,587.598 L476.836,606.038 L481.882,620.272 Q482.327,621.527 481.757,622.722 Q481.188,623.918 479.933,624.362 z" fill="#20441A"/>
    </g>
  </g>
  <g id="Layer_6_Copy">
    <g>
      <path d="M214.928,473.437 Q215.305,474.601 214.866,475.613 Q214.427,476.626 213.506,477.198 Q212.584,477.771 211.611,477.688 L177.492,475.783 Q176.081,475.69 175.236,475.065 Q174.39,474.44 174.019,473.292 Q173.648,472.145 173.97,471.152 Q174.292,470.158 175.381,469.258 L201.929,447.75 Q202.738,447.092 203.82,447.016 Q204.902,446.941 205.816,447.515 Q206.731,448.089 207.102,449.237 Q207.418,450.213 207.155,451.216 Q206.893,452.218 206.12,452.751 L180.668,471.975 L180.186,470.485 L212.074,471.162 Q213.013,471.142 213.813,471.802 Q214.613,472.461 214.928,473.437 z M198.797,475.268 L193.125,457.73 L198.674,455.936 L204.38,473.462 z" fill="#20441A"/>
      <path d="M204.111,436.799 Q204.26,438.195 203.461,439.185 Q202.661,440.175 201.265,440.324 L169.304,443.619 Q167.693,443.79 166.635,442.944 Q165.576,442.097 165.433,440.755 Q165.313,439.627 165.778,438.808 Q166.242,437.989 167.178,437.419 L195.692,420.462 L195.955,422.932 L164.6,412.876 Q163.59,412.567 162.932,411.832 Q162.275,411.096 162.151,409.933 Q162.006,408.572 162.866,407.549 Q163.725,406.525 165.049,406.384 L197.266,402.773 Q198.663,402.624 199.655,403.441 Q200.647,404.259 200.795,405.655 Q200.944,407.051 200.144,408.041 Q199.345,409.031 197.949,409.18 L172.038,411.668 L173.501,409.756 L198.91,417.875 Q200.785,418.472 201.548,419.187 Q202.312,419.902 202.436,421.066 Q202.56,422.229 201.938,423.101 Q201.316,423.973 199.663,424.945 L176.663,438.436 L174.747,437.102 L200.583,433.917 Q201.977,433.749 202.969,434.567 Q203.961,435.384 204.111,436.799 z" fill="#20441A"/>
      <path d="M200.914,389.594 Q200.785,390.997 199.811,391.811 Q198.837,392.626 197.448,392.499 L166.169,389.636 Q164.781,389.509 163.962,388.525 Q163.143,387.542 163.27,386.153 L163.566,382.927 L201.208,386.372 L200.914,389.594 z M163.384,384.917 L164.859,368.802 Q164.975,367.529 165.865,366.788 Q166.755,366.047 168.028,366.164 Q169.301,366.28 170.042,367.17 Q170.783,368.06 170.666,369.333 L169.191,385.448 z M178.783,386.706 L180.123,372.06 Q180.24,370.788 181.144,370.048 Q182.048,369.308 183.342,369.427 Q184.637,369.545 185.378,370.436 Q186.119,371.326 186.002,372.598 L184.662,387.244 z M195.268,387.292 L196.751,371.088 Q196.867,369.816 197.758,369.074 Q198.648,368.333 199.921,368.45 Q201.194,368.566 201.934,369.457 Q202.675,370.347 202.559,371.619 L201.076,387.824 z" fill="#20441A"/>
      <path d="M205.517,358.129 Q205.161,359.45 204.014,360.111 Q202.867,360.772 201.546,360.417 L170.779,352.143 Q169.423,351.779 168.78,350.636 Q168.137,349.494 168.492,348.173 L169.333,345.044 L203.229,354.159 Q204.55,354.514 205.211,355.662 Q205.872,356.809 205.517,358.129 z M184.493,350.985 L187.363,340.312 Q187.938,338.174 186.94,336.48 Q185.941,334.785 183.803,334.211 Q181.457,333.579 179.666,334.729 Q177.875,335.878 177.281,338.085 L174.505,348.41 L168.838,346.886 L171.67,336.353 Q172.54,333.12 174.587,330.912 Q176.635,328.704 179.466,327.881 Q182.297,327.058 185.408,327.894 Q188.485,328.722 190.524,330.808 Q192.563,332.894 193.231,335.748 Q193.898,338.603 193.095,341.592 L190.159,352.508 z M211.121,337.288 Q210.887,338.157 210.246,338.74 Q209.605,339.322 208.715,339.512 L191.53,342.7 L191.295,336.505 L207.448,333.411 Q208.123,333.257 208.888,333.463 Q210.157,333.804 210.812,334.903 Q211.467,336.002 211.121,337.288 z" fill="#20441A"/>
      <path d="M216.421,324.032 Q215.883,325.333 214.703,325.819 Q213.523,326.304 212.235,325.772 L182.225,313.368 Q180.938,312.836 180.448,311.652 Q179.957,310.467 180.491,309.177 Q181.024,307.886 182.212,307.384 Q183.399,306.881 184.686,307.413 L214.697,319.817 Q215.984,320.349 216.471,321.54 Q216.959,322.731 216.421,324.032 z" fill="#20441A"/>
      <path d="M228.612,299.892 Q226.218,304.101 222.173,305.88 Q218.128,307.658 213.304,307.038 Q208.48,306.417 203.693,303.694 Q198.779,300.9 195.867,296.955 Q192.954,293.01 192.556,288.632 Q192.157,284.253 194.497,280.138 Q195.485,278.402 196.898,277.01 Q198.31,275.618 199.979,274.724 Q201.914,273.65 204.086,273.509 Q206.258,273.367 207.713,274.195 Q208.84,274.835 209.193,275.927 Q209.546,277.018 208.869,278.207 Q208.344,279.13 207.468,279.45 Q206.593,279.77 205.356,279.688 Q203.561,279.494 202.11,280.243 Q200.659,280.992 199.6,282.854 Q198.149,285.404 198.605,288.19 Q199.061,290.975 201.22,293.549 Q203.38,296.124 206.947,298.153 Q210.546,300.199 213.866,300.752 Q217.186,301.304 219.735,300.3 Q222.284,299.296 223.663,296.87 Q224.793,294.884 224.544,292.899 Q224.296,290.914 222.645,289.23 Q221.716,288.35 221.51,287.311 Q221.304,286.272 221.864,285.287 Q222.496,284.176 223.72,283.826 Q224.944,283.477 226.023,284.091 Q228.151,285.301 229.387,287.825 Q230.622,290.35 230.502,293.564 Q230.383,296.778 228.612,299.892 z" fill="#20441A"/>
      <path d="M238.811,282.906 Q238.031,283.849 236.942,284.023 Q235.852,284.197 234.874,283.728 Q233.896,283.258 233.443,282.394 L216.71,252.598 Q216.03,251.359 216.102,250.31 Q216.175,249.26 216.943,248.331 Q217.711,247.401 218.722,247.139 Q219.733,246.876 221.078,247.311 L253.484,258.137 Q254.474,258.465 255.119,259.337 Q255.765,260.209 255.772,261.289 Q255.779,262.368 255.01,263.298 Q254.357,264.089 253.371,264.407 Q252.384,264.724 251.519,264.359 L221.629,253.23 L222.626,252.022 L239.194,279.276 Q239.716,280.057 239.59,281.086 Q239.464,282.115 238.811,282.906 z M228.596,270.287 L240.336,256.077 L244.832,259.792 L233.12,274.024 z" fill="#20441A"/>
      <path d="M264.104,254.334 Q263.028,255.235 261.76,255.124 Q260.493,255.012 259.591,253.936 L238.887,229.225 Q237.869,228.01 237.977,226.71 Q238.086,225.41 239.093,224.567 Q240.059,223.757 241,223.732 Q241.942,223.706 243.295,224.145 L273.401,233.534 L274.36,236.417 L255.679,214.849 Q254.763,213.785 254.896,212.5 Q255.028,211.215 256.105,210.313 Q257.181,209.411 258.449,209.523 Q259.717,209.634 260.618,210.71 L281.473,235.601 Q282.329,236.621 282.212,237.94 Q282.096,239.259 281.075,240.115 Q280.178,240.866 279.266,240.996 Q278.354,241.126 277.357,240.834 L244.622,230.689 L246.593,229.061 L264.53,249.797 Q265.446,250.861 265.32,252.141 Q265.195,253.42 264.104,254.334 z" fill="#20441A"/>
      <path d="M317.389,218.654 Q316.156,219.157 314.935,218.644 Q313.715,218.131 313.212,216.899 L301.146,187.334 Q300.642,186.101 301.155,184.88 Q301.668,183.66 302.901,183.157 L305.901,181.933 L319.178,214.464 Q319.681,215.696 319.168,216.917 Q318.656,218.137 317.389,218.654 z M310.552,198.756 L320.618,194.648 Q322.884,193.723 323.689,191.694 Q324.493,189.665 323.541,187.331 Q322.541,184.881 320.521,184.005 Q318.501,183.128 316.085,184.114 L306.219,188.141 L304.002,182.708 L314.2,178.545 Q317.334,177.266 320.391,177.613 Q323.449,177.959 325.865,179.831 Q328.282,181.703 329.54,184.785 Q330.812,187.902 330.441,190.921 Q330.069,193.941 328.285,196.263 Q326.501,198.585 323.701,199.728 L312.769,204.19 z" fill="#20441A"/>
      <path d="M348.331,206.879 Q346.958,207.195 345.879,206.525 Q344.801,205.854 344.488,204.495 L337.432,173.888 Q337.119,172.529 337.797,171.444 Q338.476,170.359 339.834,170.046 L342.991,169.318 L351.483,206.152 L348.331,206.879 z M341.044,169.767 L356.813,166.132 Q358.058,165.844 359.04,166.458 Q360.022,167.072 360.309,168.318 Q360.596,169.564 359.983,170.546 Q359.369,171.527 358.123,171.815 L342.354,175.45 z M344.157,184.954 L358.488,181.65 Q359.733,181.363 360.718,181.991 Q361.704,182.619 361.996,183.885 Q362.288,185.152 361.673,186.134 Q361.059,187.116 359.814,187.403 L345.484,190.707 z M348.752,200.797 L364.609,197.141 Q365.853,196.854 366.836,197.468 Q367.818,198.082 368.105,199.327 Q368.392,200.573 367.778,201.555 Q367.163,202.537 365.919,202.824 L350.062,206.479 z" fill="#20441A"/>
      <path d="M379.662,201.469 Q378.297,201.547 377.309,200.666 Q376.321,199.785 376.242,198.419 L374.422,166.611 Q374.342,165.21 375.224,164.24 Q376.106,163.27 377.471,163.191 L380.706,163.006 L382.712,198.049 Q382.79,199.414 381.909,200.402 Q381.028,201.391 379.662,201.469 z M379.834,179.265 L390.867,178.633 Q393.078,178.507 394.372,177.026 Q395.667,175.546 395.54,173.336 Q395.401,170.91 393.747,169.571 Q392.093,168.232 389.811,168.363 L379.137,168.974 L378.801,163.115 L389.692,162.492 Q393.034,162.301 395.774,163.55 Q398.513,164.8 400.185,167.228 Q401.857,169.656 402.041,172.873 Q402.223,176.054 400.884,178.646 Q399.545,181.237 397.045,182.769 Q394.545,184.3 391.455,184.477 L380.169,185.123 z M401.209,200.235 Q400.311,200.287 399.556,199.861 Q398.801,199.436 398.342,198.651 L389.911,183.34 L395.718,181.168 L403.734,195.53 Q404.092,196.122 404.138,196.913 Q404.213,198.224 403.376,199.192 Q402.539,200.159 401.209,200.235 z" fill="#20441A"/>
      <path d="M415.459,201.096 Q414.056,200.991 413.226,200.021 Q412.397,199.051 412.501,197.661 L414.931,165.28 Q415.036,163.891 416.008,163.056 Q416.981,162.221 418.374,162.326 Q419.766,162.43 420.614,163.402 Q421.461,164.373 421.357,165.762 L418.927,198.144 Q418.823,199.533 417.843,200.367 Q416.863,201.202 415.459,201.096 z" fill="#20441A"/>
      <path d="M431.37,202.802 Q430.065,202.54 429.332,201.437 Q428.598,200.335 428.86,199.03 L435.146,167.722 Q435.409,166.417 436.511,165.683 Q437.613,164.95 438.918,165.212 L442.095,165.85 L435.178,200.299 Q434.916,201.604 433.814,202.338 Q432.712,203.071 431.37,202.802 z M436.671,182.441 L447.33,184.581 Q449.73,185.063 451.523,183.817 Q453.315,182.57 453.811,180.099 Q454.332,177.505 453.133,175.658 Q451.934,173.811 449.376,173.297 L438.928,171.199 L440.084,165.446 L450.883,167.615 Q454.201,168.281 456.558,170.26 Q458.915,172.238 459.894,175.134 Q460.873,178.029 460.218,181.294 Q459.555,184.594 457.576,186.905 Q455.598,189.215 452.828,190.165 Q450.057,191.114 447.092,190.519 L435.516,188.194 z" fill="#20441A"/>
      <path d="M463.523,210.422 Q462.216,209.902 461.714,208.728 Q461.213,207.554 461.728,206.26 L473.737,176.089 Q474.252,174.795 475.43,174.289 Q476.608,173.784 477.906,174.3 Q479.203,174.816 479.721,175.997 Q480.239,177.178 479.724,178.472 L467.715,208.643 Q467.2,209.937 466.016,210.44 Q464.831,210.943 463.523,210.422 z M485.355,219.112 Q484.058,218.595 483.556,217.421 Q483.054,216.247 483.57,214.953 L495.578,184.783 Q496.093,183.488 497.272,182.983 Q498.45,182.477 499.747,182.994 Q501.045,183.51 501.546,184.684 Q502.047,185.858 501.532,187.152 L489.523,217.323 Q489.008,218.617 487.83,219.123 Q486.652,219.628 485.355,219.112 z M472.777,189.501 L494.133,198.002 L491.964,203.453 L470.607,194.953 z" fill="#20441A"/>
      <path d="M499.781,226.129 Q498.585,225.384 498.294,224.149 Q498.003,222.913 498.739,221.729 L515.327,195.055 Q516.063,193.872 517.309,193.581 Q518.555,193.291 519.739,194.027 L522.49,195.738 L502.529,227.837 L499.781,226.129 z M520.794,194.683 L534.536,203.228 Q535.621,203.903 535.884,205.031 Q536.147,206.159 535.472,207.244 Q534.797,208.33 533.669,208.593 Q532.541,208.856 531.456,208.181 L517.714,199.635 z M512.288,207.644 L524.777,215.41 Q525.862,216.085 526.117,217.225 Q526.373,218.365 525.687,219.468 Q525,220.573 523.872,220.835 Q522.744,221.098 521.659,220.423 L509.171,212.657 z M504.37,222.115 L518.189,230.708 Q519.273,231.383 519.537,232.511 Q519.8,233.639 519.125,234.724 Q518.45,235.81 517.322,236.072 Q516.194,236.335 515.109,235.66 L501.29,227.067 z" fill="#20441A"/>
      <path d="M525.822,244.322 Q524.778,243.383 524.71,242.112 Q524.642,240.842 525.581,239.797 L547.131,215.821 Q548.19,214.642 549.492,214.567 Q550.795,214.491 551.772,215.369 Q552.709,216.212 552.867,217.14 Q553.025,218.069 552.781,219.471 L547.723,250.598 L545.004,251.954 L563.727,230.422 Q564.652,229.366 565.943,229.316 Q567.234,229.267 568.278,230.205 Q569.323,231.144 569.391,232.415 Q569.459,233.686 568.52,234.73 L546.813,258.881 Q545.923,259.871 544.601,259.942 Q543.279,260.012 542.288,259.122 Q541.418,258.34 541.161,257.455 Q540.904,256.57 541.052,255.542 L546.489,221.705 L548.378,223.427 L530.373,244.105 Q529.448,245.162 528.164,245.217 Q526.88,245.273 525.822,244.322 z" fill="#20441A"/>
      <path d="M559.889,280.33 Q557.016,276.501 556.781,272.109 Q556.546,267.716 558.901,263.418 Q561.257,259.119 565.914,255.624 Q570.543,252.151 575.399,251.14 Q580.255,250.13 584.493,251.608 Q588.731,253.087 591.518,256.802 Q594.31,260.523 594.494,264.937 Q594.677,269.351 592.318,273.675 Q589.96,277.999 585.324,281.477 Q580.659,284.978 575.873,286.037 Q571.087,287.096 566.925,285.628 Q562.763,284.16 559.889,280.33 z M564.524,276.85 Q566.308,279.228 569.015,279.942 Q571.723,280.656 574.94,279.716 Q578.157,278.775 581.445,276.308 Q584.685,273.878 586.522,271.027 Q588.359,268.177 588.452,265.336 Q588.544,262.496 586.785,260.15 Q585.02,257.799 582.283,257.115 Q579.546,256.431 576.282,257.38 Q573.018,258.328 569.771,260.764 Q566.495,263.222 564.691,266.05 Q562.886,268.878 562.824,271.69 Q562.761,274.501 564.524,276.85 z" fill="#20441A"/>
      <path d="M575.639,303 Q575.056,301.722 575.501,300.53 Q575.946,299.338 577.224,298.755 L606.499,285.516 Q607.973,284.843 609.245,285.311 Q610.518,285.779 611.078,287.007 Q611.549,288.039 611.367,288.963 Q611.185,289.887 610.478,290.724 L588.795,315.833 L587.764,313.573 L620.69,313.19 Q621.746,313.163 622.603,313.653 Q623.459,314.143 623.945,315.207 Q624.513,316.452 624.021,317.695 Q623.53,318.938 622.319,319.49 L592.9,333.111 Q591.622,333.694 590.423,333.232 Q589.223,332.771 588.64,331.494 Q588.057,330.216 588.502,329.024 Q588.948,327.832 590.225,327.249 L614.016,316.69 L613.234,318.966 L586.561,319.305 Q584.594,319.332 583.643,318.895 Q582.693,318.459 582.207,317.394 Q581.721,316.33 582.035,315.306 Q582.35,314.282 583.61,312.836 L601.158,292.76 L603.399,293.42 L579.898,304.617 Q578.629,305.217 577.429,304.755 Q576.229,304.294 575.639,303 z" fill="#20441A"/>
      <path d="M593.611,346.773 Q593.289,345.401 593.955,344.321 Q594.621,343.24 595.979,342.921 L626.556,335.736 Q627.913,335.417 629.001,336.091 Q630.089,336.765 630.408,338.122 L631.149,341.276 L594.351,349.922 L593.611,346.773 z M630.692,339.331 L634.393,355.084 Q634.686,356.329 634.076,357.313 Q633.466,358.298 632.222,358.59 Q630.977,358.882 629.993,358.272 Q629.008,357.663 628.716,356.418 L625.015,340.665 z M615.518,342.508 L618.882,356.825 Q619.175,358.068 618.551,359.056 Q617.927,360.045 616.662,360.342 Q615.396,360.639 614.412,360.029 Q613.427,359.419 613.135,358.175 L609.771,343.858 z M599.695,347.169 L603.417,363.01 Q603.709,364.254 603.1,365.239 Q602.49,366.223 601.245,366.516 Q600.001,366.808 599.017,366.198 Q598.032,365.588 597.74,364.344 L594.018,348.503 z" fill="#20441A"/>
      <path d="M599.232,378.034 Q599.154,376.633 600.003,375.684 Q600.852,374.736 602.254,374.659 L634.443,372.882 Q636.025,372.795 637.001,373.661 Q637.977,374.526 638.049,375.838 Q638.119,377.096 637.575,377.865 Q637.032,378.634 635.87,379.456 L610.318,397.938 L607.435,396.979 L635.895,394.94 Q637.296,394.844 638.246,395.72 Q639.195,396.596 639.273,397.998 Q639.35,399.4 638.501,400.348 Q637.652,401.297 636.25,401.374 L603.827,403.164 Q602.498,403.237 601.511,402.354 Q600.525,401.471 600.452,400.141 Q600.387,398.973 600.829,398.164 Q601.271,397.356 602.102,396.733 L629.835,376.598 L629.958,379.151 L602.609,381.093 Q601.208,381.189 600.259,380.322 Q599.31,379.455 599.232,378.034 z" fill="#20441A"/>
      <path d="M600.132,412.963 Q600.289,411.75 601.118,411.022 Q601.947,410.294 603.025,410.17 Q604.103,410.046 604.947,410.536 L634.984,426.832 Q636.22,427.518 636.718,428.445 Q637.215,429.371 637.061,430.567 Q636.906,431.763 636.191,432.524 Q635.475,433.285 634.105,433.633 L600.915,441.741 Q599.903,441.991 598.892,441.597 Q597.881,441.203 597.299,440.294 Q596.718,439.384 596.873,438.187 Q597.004,437.17 597.67,436.376 Q598.335,435.582 599.262,435.429 L630.486,428.919 L630.285,430.472 L601.741,416.239 Q600.884,415.856 600.442,414.918 Q600.001,413.981 600.132,412.963 z M615.5,418.198 L613.138,436.478 L607.354,435.73 L609.68,417.446 z" fill="#20441A"/>
      <path d="M594.223,450.739 Q594.618,449.43 595.782,448.813 Q596.947,448.195 598.221,448.58 L628.79,457.813 Q630.064,458.198 630.69,459.365 Q631.315,460.531 630.93,461.806 Q630.545,463.081 629.373,463.724 Q628.201,464.366 626.927,463.981 L593.291,453.822 L594.223,450.739 z M599.327,454.009 L594.778,469.07 Q594.409,470.293 593.388,470.841 Q592.367,471.388 591.144,471.018 Q589.92,470.649 589.373,469.628 Q588.826,468.607 589.195,467.384 L593.744,452.323 z" fill="#20441A"/>
    </g>
  </g>
  <g id="Layer_13">
    <path d="M400.732,286.99 L497.998,456.15 L303.465,456.15 z" fill-opacity="0" stroke="#000000" stroke-width="8"/>
    <g>
      <path d="M400.732,400.038 L400.732,428.473" fill-opacity="0" stroke="#000000" stroke-width="5"/>
      <path d="M374.849,388.473 L400.732,400.038" fill-opacity="0" stroke="#000000" stroke-width="5"/>
      <path d="M426.614,388.473 L400.732,400.038" fill-opacity="0" stroke="#000000" stroke-width="5"/>
    </g>
  </g>
  <g id="Layer_16">
    <g display="none">
      <path d="M399,541.831 C385.197,541.831 374.008,530.642 374.008,516.84 C374.008,503.037 385.197,491.848 399,491.848 C412.803,491.848 423.992,503.037 423.992,516.84 C423.992,530.642 412.803,541.831 399,541.831 z" fill="url(#Gradient_1)"/>
      <path d="M413.804,516.913 C413.804,524.801 407.335,531.195 399.353,531.195 C391.371,531.195 384.901,524.801 384.901,516.913 C384.901,509.023 391.371,502.629 399.353,502.629 C407.335,502.629 413.804,509.023 413.804,516.913" fill="#20441A"/>
      <path d="M412.399,515.015 C412.399,517.085 410.7,518.764 408.606,518.764 C406.51,518.764 404.812,517.085 404.812,515.015 C404.812,512.943 406.51,511.266 408.606,511.266 C410.7,511.266 412.399,512.943 412.399,515.015" fill="#FFFFFF"/>
      <path d="M401.683,505.642 C401.683,506.677 400.834,507.517 399.785,507.517 C398.739,507.517 397.889,506.677 397.889,505.642 C397.889,504.607 398.739,503.768 399.785,503.768 C400.834,503.768 401.683,504.607 401.683,505.642" fill="#FFFFFF"/>
      <path d="M428.111,494.479 C421.543,491.068 414.281,488.388 406.59,487.278 C420.274,490.633 430.415,502.851 430.415,517.412 C430.415,528.969 424.026,539.05 414.55,544.397 C426.019,538.744 433.902,527.039 433.902,513.51 C433.902,510.081 433.393,506.77 432.45,503.644 C442.219,509.951 449.805,517.404 453.808,521.712 C445.895,530.206 423.979,550.985 399,550.985 C374.028,550.985 352.119,530.218 344.198,521.718 C348.202,517.419 355.789,509.983 365.538,503.68 C364.604,506.795 364.099,510.095 364.099,513.51 C364.099,527.037 371.98,538.744 383.451,544.397 C373.974,539.05 367.584,528.969 367.584,517.412 C367.584,502.851 377.727,490.633 391.409,487.278 C383.719,488.388 376.458,491.068 369.889,494.479 C350.035,504.792 336.5,521.718 336.5,521.718 C336.5,521.718 364.482,556.722 399,556.722 C433.517,556.722 461.5,521.718 461.5,521.718 C461.5,521.718 447.964,504.792 428.111,494.479" fill="#20441A"/>
    </g>
    <g>
      <path d="M341.5,522 Q401.5,472 461.5,522 Q401.5,572 341.5,522 z" fill-opacity="0" stroke="#2C3E50" stroke-width="3"/>
      <path d="M429.5,522 C429.5,537.464 416.964,550 401.5,550 C386.036,550 373.5,537.464 373.5,522 C373.5,506.536 386.036,494 401.5,494 C416.964,494 429.5,506.536 429.5,522 z" fill="#3498DB"/>
      <path d="M415.5,522 C415.5,529.732 409.232,536 401.5,536 C393.768,536 387.5,529.732 387.5,522 C387.5,514.268 393.768,508 401.5,508 C409.232,508 415.5,514.268 415.5,522 z" fill="#2C3E50"/>
      <path d="M416.5,514 C416.5,516.761 414.261,519 411.5,519 C408.739,519 406.5,516.761 406.5,514 C406.5,511.239 408.739,509 411.5,509 C414.261,509 416.5,511.239 416.5,514 z" fill="#FFFFFF" display="none"/>
    </g>
    <g>
      <path d="M279.507,303.641 L301.636,347.901 L286.883,347.901 L309.013,377.408 L250,377.408 L272.13,347.901 L257.377,347.901 z" fill="#193614"/>
      <path d="M275.818,377.408 L283.195,377.408 L283.195,388.473 L275.818,388.473 z" fill="#522C15"/>
    </g>
    <path d="M474.63,350.372 L492.43,350.372 L501.33,323.672 L510.23,377.072 L519.13,314.772 L528.03,385.972 L536.93,332.572 L545.83,350.372 L563.63,350.372" fill-opacity="0" stroke="#0136FF" stroke-width="5" stroke-linecap="round"/>
  </g>
  <g id="Layer_14">
    <g>
      <path d="M413.759,57.028 C413.759,64.222 407.927,70.055 400.732,70.055 C393.537,70.055 387.704,64.222 387.704,57.028 C387.704,49.833 393.537,44 400.732,44 C407.927,44 413.759,49.833 413.759,57.028 z" fill="#000000"/>
      <path d="M413.759,742.972 C413.759,750.167 407.927,756 400.732,756 C393.537,756 387.704,750.167 387.704,742.972 C387.704,735.778 393.537,729.945 400.732,729.945 C407.927,729.945 413.759,735.778 413.759,742.972 z" fill="#000000"/>
      <path d="M69.055,401.5 C69.055,408.695 63.222,414.528 56.028,414.528 C48.833,414.528 43,408.695 43,401.5 C43,394.305 48.833,388.472 56.028,388.472 C63.222,388.472 69.055,394.305 69.055,401.5 z" fill="#000000"/>
      <path d="M754,400 C754,407.195 748.167,413.028 740.972,413.028 C733.778,413.028 727.945,407.195 727.945,400 C727.945,392.805 733.778,386.972 740.972,386.972 C748.167,386.972 754,392.805 754,400 z" fill="#000000"/>
      <path d="M413.759,400 C413.759,407.195 407.927,413.028 400.732,413.028 C393.537,413.028 387.704,407.195 387.704,400 C387.704,392.805 393.537,386.972 400.732,386.972 C407.927,386.972 413.759,392.805 413.759,400 z" fill="#000000"/>
    </g>
  </g>
  <g id="Layer_15">
    <g>
      <path d="M326.045,696.256 Q324.855,696.005 324.225,695.038 Q323.595,694.072 323.846,692.882 L329.606,665.578 Q329.857,664.389 330.824,663.759 Q331.79,663.129 332.98,663.38 L335.798,663.974 L328.863,696.851 L326.045,696.256 z M329.25,691.373 L335.387,692.667 Q339.504,693.536 342.209,691.139 Q344.915,688.742 346.034,683.434 Q346.747,680.053 346.409,677.316 Q346.07,674.579 344.658,672.826 Q343.246,671.073 340.819,670.561 L333.946,669.111 L335.063,663.819 L342.123,665.308 Q346.115,666.151 348.619,668.894 Q351.123,671.638 351.894,675.734 Q352.664,679.829 351.661,684.588 Q350.614,689.551 348.178,692.88 Q345.743,696.209 342.187,697.56 Q338.632,698.911 334.358,698.01 L328.127,696.696 z" fill="#29431F"/>
      <path d="M356.61,702.525 Q355.421,702.358 354.751,701.44 Q354.08,700.522 354.24,699.381 L357.036,679.464 Q357.203,678.276 358.098,677.602 Q358.992,676.928 360.18,677.095 Q361.369,677.261 362.043,678.156 Q362.717,679.05 362.55,680.239 L359.754,700.155 Q359.594,701.296 358.696,701.994 Q357.798,702.692 356.61,702.525 z M360.594,674.147 Q362.02,674.348 362.952,673.582 Q363.883,672.816 364.103,671.247 Q364.33,669.631 363.642,668.662 Q362.954,667.693 361.528,667.493 Q360.102,667.293 359.174,668.035 Q358.246,668.777 358.019,670.393 Q357.799,671.962 358.483,672.954 Q359.168,673.947 360.594,674.147 z" fill="#29431F"/>
      <path d="M375.118,704.526 Q374.257,704.457 373.548,703.894 Q372.839,703.332 372.531,702.36 L366.442,681.839 Q366.186,681.032 366.473,680.156 Q366.76,679.28 367.502,678.738 Q368.244,678.196 369.232,678.275 Q370.141,678.348 370.804,678.891 Q371.467,679.433 371.707,680.24 L376.809,697.664 L374.973,697.933 L383.158,681.159 Q383.54,680.403 384.257,679.971 Q384.973,679.539 385.803,679.605 Q386.696,679.677 387.31,680.328 Q387.924,680.979 388.069,681.874 Q388.214,682.769 387.813,683.555 L378.084,702.774 Q377.626,703.684 376.811,704.14 Q375.996,704.596 375.118,704.526 z" fill="#29431F"/>
      <path d="M394.169,705.356 Q392.969,705.342 392.186,704.517 Q391.404,703.692 391.417,702.54 L391.647,682.429 Q391.661,681.229 392.462,680.447 Q393.263,679.664 394.463,679.677 Q395.663,679.691 396.446,680.492 Q397.229,681.293 397.215,682.493 L396.984,702.604 Q396.971,703.756 396.17,704.563 Q395.369,705.37 394.169,705.356 z M394.497,676.702 Q395.937,676.718 396.763,675.84 Q397.589,674.961 397.607,673.377 Q397.626,671.745 396.82,670.872 Q396.014,669.999 394.574,669.982 Q393.134,669.966 392.308,670.82 Q391.483,671.675 391.464,673.307 Q391.446,674.891 392.251,675.788 Q393.057,676.685 394.497,676.702 z" fill="#29431F"/>
      <path d="M412.895,705.445 Q409.843,705.591 407.494,704.702 Q405.145,703.813 403.84,702.337 Q402.536,700.862 402.337,699.366 Q402.217,698.218 402.922,697.384 Q403.627,696.549 404.714,696.497 Q405.562,696.457 406.13,696.79 Q406.699,697.123 407.192,697.724 Q407.345,697.925 407.501,698.158 Q408.423,699.363 409.656,700.025 Q410.889,700.687 412.776,700.597 Q414.709,700.504 415.689,699.729 Q416.669,698.953 416.612,697.754 Q416.571,696.907 415.992,696.35 Q415.413,695.793 414.238,695.353 Q413.064,694.912 410.629,694.244 Q408.341,693.616 406.686,692.854 Q405.032,692.093 403.868,690.699 Q402.704,689.305 402.603,687.18 Q402.503,685.102 403.531,683.315 Q404.559,681.527 406.571,680.39 Q408.583,679.253 411.332,679.121 Q414.065,678.991 416.154,679.812 Q418.244,680.633 419.39,681.995 Q420.536,683.358 420.606,684.812 Q420.656,685.851 420.081,686.568 Q419.507,687.284 418.5,687.332 Q417.621,687.374 416.957,687.037 Q416.292,686.701 415.665,685.994 L415.597,685.917 Q414.928,684.988 414.077,684.436 Q413.226,683.884 411.435,683.97 Q409.774,684.049 408.87,684.749 Q407.966,685.449 408.015,686.472 Q408.057,687.335 408.659,687.867 Q409.261,688.399 410.345,688.795 Q411.429,689.192 413.344,689.709 L414.027,689.932 Q416.707,690.702 418.346,691.48 Q419.985,692.259 420.974,693.501 Q421.962,694.743 422.059,696.757 Q422.166,698.994 421.216,700.906 Q420.266,702.818 418.163,704.055 Q416.059,705.293 412.895,705.445 z" fill="#29431F"/>
      <path d="M431.121,703.697 Q429.928,703.825 429.054,703.097 Q428.18,702.37 428.057,701.224 L425.924,681.226 Q425.797,680.033 426.501,679.161 Q427.204,678.289 428.398,678.162 Q429.591,678.035 430.462,678.739 Q431.334,679.442 431.461,680.635 L433.594,700.634 Q433.716,701.779 433.015,702.675 Q432.314,703.57 431.121,703.697 z M428.082,675.203 Q429.514,675.05 430.231,674.081 Q430.948,673.111 430.78,671.536 Q430.607,669.913 429.704,669.141 Q428.801,668.368 427.369,668.521 Q425.937,668.674 425.218,669.619 Q424.498,670.565 424.671,672.188 Q424.839,673.763 425.745,674.559 Q426.65,675.356 428.082,675.203 z" fill="#29431F"/>
      <path d="M450.289,696.086 Q453.22,695.574 454.474,693.22 Q455.728,690.865 455.062,687.05 Q454.415,683.347 452.432,681.574 Q450.449,679.8 447.533,680.31 Q444.649,680.813 443.432,683.146 Q442.215,685.478 442.862,689.181 Q443.529,692.996 445.459,694.794 Q447.389,696.593 450.289,696.086 z M451.161,701.083 Q447.757,701.677 444.844,700.481 Q441.93,699.284 439.94,696.586 Q437.951,693.889 437.298,690.153 Q436.657,686.481 437.621,683.307 Q438.585,680.134 440.921,678.021 Q443.256,675.908 446.66,675.313 Q450.065,674.718 453.025,675.907 Q455.986,677.095 457.987,679.766 Q459.989,682.438 460.625,686.079 Q461.277,689.814 460.304,693.03 Q459.331,696.245 456.948,698.367 Q454.566,700.488 451.161,701.083 z" fill="#29431F"/>
      <path d="M470.701,696.868 Q469.573,697.173 468.591,696.61 Q467.61,696.047 467.305,694.919 L462.04,675.476 Q461.734,674.348 462.297,673.367 Q462.86,672.386 463.988,672.081 Q465.084,671.784 466.081,672.343 Q467.077,672.901 467.383,674.029 L472.648,693.473 Q472.954,694.6 472.375,695.586 Q471.797,696.571 470.701,696.868 z M466.973,674.903 Q467.959,672.729 469.533,671.317 Q471.107,669.904 473.361,669.294 Q475.94,668.595 478.247,669.156 Q480.554,669.717 482.25,671.511 Q483.946,673.306 484.728,676.195 L488.262,689.244 Q488.567,690.372 488.02,691.349 Q487.472,692.326 486.345,692.631 Q485.217,692.937 484.236,692.374 Q483.255,691.811 482.95,690.683 L479.562,678.173 Q478.931,675.842 477.4,674.905 Q475.87,673.969 473.662,674.567 Q471.253,675.219 469.972,677.041 Q468.692,678.863 469.256,680.948 L468.654,681.111 L466.973,674.903 z" fill="#29431F"/>
    </g>
  </g>
  <g id="Layer_13_Copy">
    <g>
      <path d="M320.929,132.529 Q316.808,133.771 313.114,132.436 Q309.42,131.101 306.695,127.745 Q303.97,124.389 302.558,119.701 Q301.108,114.891 301.651,110.566 Q302.194,106.241 304.622,103.178 Q307.049,100.115 311.078,98.901 Q312.778,98.389 314.541,98.359 Q316.303,98.329 317.926,98.776 Q319.829,99.272 321.314,100.512 Q322.799,101.752 323.229,103.176 Q323.561,104.279 323.119,105.198 Q322.678,106.117 321.514,106.468 Q320.609,106.74 319.85,106.409 Q319.09,106.078 318.344,105.267 Q317.307,104.042 315.914,103.635 Q314.521,103.228 312.698,103.777 Q310.201,104.53 308.787,106.602 Q307.373,108.674 307.185,111.655 Q306.997,114.636 308.049,118.129 Q309.112,121.653 310.91,124.043 Q312.708,126.434 314.965,127.35 Q317.221,128.266 319.596,127.55 Q321.541,126.964 322.598,125.534 Q323.654,124.104 323.624,122.008 Q323.565,120.872 324.069,120.077 Q324.573,119.282 325.539,118.991 Q326.627,118.663 327.628,119.189 Q328.63,119.714 328.949,120.771 Q329.577,122.854 328.825,125.236 Q328.072,127.619 326.025,129.615 Q323.978,131.61 320.929,132.529 z" fill="#29431F"/>
      <path d="M344.532,126.55 Q341.957,127.057 339.749,126.531 Q337.542,126.004 336.055,124.544 Q334.569,123.083 334.129,120.854 Q333.724,118.798 334.38,116.875 Q335.037,114.952 336.95,113.408 Q338.864,111.865 342.063,111.136 Q345.178,110.391 346.434,109.524 Q347.69,108.657 347.418,107.276 Q347.167,106.005 345.923,105.443 Q344.679,104.88 342.764,105.258 Q341.068,105.592 340.153,106.449 Q339.238,107.306 338.817,108.319 Q338.502,109.034 337.945,109.477 Q337.389,109.921 336.541,110.088 Q335.3,110.333 334.458,109.618 Q333.617,108.903 333.607,107.699 Q333.514,106.233 334.64,104.706 Q335.766,103.18 337.754,102.013 Q339.742,100.847 342.096,100.383 Q346.743,99.467 349.508,101.539 Q352.273,103.611 353.093,107.772 L355.083,117.865 Q355.185,118.383 355.352,118.571 Q355.52,118.758 355.884,118.784 Q356.706,118.817 357.416,119.362 Q358.127,119.907 358.316,120.864 Q358.542,122.011 357.826,122.926 Q357.109,123.842 355.583,124.127 Q354.136,124.396 353.063,123.71 Q351.99,123.025 351.693,121.518 L351.625,121.173 L351.484,121.201 Q350.732,123.257 348.945,124.661 Q347.159,126.065 344.532,126.55 z M344.174,121.597 Q345.745,121.288 346.979,120.311 Q348.213,119.333 348.782,117.917 Q349.351,116.5 349.051,114.978 L348.627,112.827 Q348.605,112.717 348.539,112.714 Q348.473,112.71 348.357,112.864 Q347.714,113.496 346.519,114.131 Q345.323,114.766 343.291,115.379 Q341.008,116.041 340.092,117.143 Q339.176,118.245 339.414,119.453 Q339.662,120.709 340.94,121.363 Q342.219,122.016 344.174,121.597 z" fill="#29431F"/>
      <path d="M372.533,122.384 Q369.493,122.7 367.098,121.943 Q364.703,121.186 363.319,119.786 Q361.935,118.385 361.653,116.903 Q361.469,115.764 362.127,114.891 Q362.784,114.019 363.867,113.906 Q364.71,113.819 365.296,114.12 Q365.883,114.421 366.408,114.994 Q366.573,115.185 366.741,115.409 Q367.729,116.561 368.997,117.153 Q370.265,117.746 372.144,117.55 Q374.069,117.35 375.004,116.521 Q375.939,115.693 375.815,114.499 Q375.728,113.655 375.118,113.132 Q374.509,112.608 373.312,112.233 Q372.115,111.859 369.647,111.327 Q367.327,110.828 365.633,110.159 Q363.939,109.491 362.699,108.164 Q361.459,106.837 361.239,104.721 Q361.024,102.651 361.951,100.81 Q362.878,98.968 364.824,97.721 Q366.769,96.473 369.506,96.189 Q372.227,95.906 374.359,96.61 Q376.491,97.313 377.712,98.61 Q378.932,99.907 379.083,101.355 Q379.19,102.389 378.657,103.136 Q378.123,103.884 377.121,103.988 Q376.246,104.079 375.563,103.779 Q374.88,103.48 374.215,102.809 L374.143,102.736 Q373.424,101.846 372.543,101.342 Q371.662,100.839 369.879,101.024 Q368.225,101.196 367.362,101.945 Q366.498,102.694 366.604,103.712 Q366.693,104.572 367.324,105.07 Q367.955,105.567 369.059,105.903 Q370.164,106.238 372.104,106.648 L372.799,106.833 Q375.518,107.452 377.198,108.138 Q378.878,108.824 379.934,110.009 Q380.99,111.194 381.198,113.199 Q381.43,115.428 380.588,117.389 Q379.746,119.351 377.715,120.704 Q375.684,122.057 372.533,122.384 z" fill="#29431F"/>
      <path d="M397.84,120.779 Q394.353,120.834 391.678,119.165 Q389.002,117.495 387.507,114.527 Q386.012,111.558 385.953,107.847 Q385.894,104.167 387.327,101.176 Q388.759,98.184 391.372,96.431 Q393.984,94.677 397.423,94.622 Q399.903,94.583 401.853,95.416 Q403.802,96.249 404.927,97.551 Q406.052,98.853 406.201,100.195 Q406.35,101.473 405.642,102.228 Q404.934,102.984 403.734,103.003 Q402.47,103.023 401.655,102.076 L401.589,101.981 Q401.458,101.759 401.148,101.412 Q400.511,100.606 399.599,100.116 Q398.687,99.627 397.455,99.647 Q394.608,99.692 393.075,101.885 Q391.542,104.077 391.6,107.757 Q391.66,111.516 393.326,113.634 Q394.992,115.751 397.791,115.707 Q399.551,115.679 400.666,114.805 Q401.78,113.931 402.524,112.431 Q402.942,111.576 403.471,111.104 Q403.999,110.632 404.783,110.619 Q406.015,110.6 406.782,111.515 Q407.548,112.431 407.409,113.698 Q407.18,115.382 405.909,117.002 Q404.639,118.622 402.543,119.68 Q400.448,120.737 397.84,120.779 z" fill="#29431F"/>
      <path d="M420.188,121.418 Q417.572,121.21 415.59,120.105 Q413.608,119 412.572,117.192 Q411.536,115.384 411.717,113.119 Q411.884,111.029 413.036,109.356 Q414.189,107.682 416.449,106.715 Q418.709,105.747 421.986,105.912 Q425.186,106.039 426.63,105.544 Q428.074,105.049 428.186,103.646 Q428.289,102.354 427.243,101.476 Q426.198,100.598 424.252,100.443 Q422.529,100.306 421.416,100.883 Q420.303,101.46 419.624,102.321 Q419.127,102.924 418.471,103.2 Q417.815,103.477 416.954,103.408 Q415.693,103.307 415.076,102.392 Q414.459,101.476 414.776,100.314 Q415.083,98.877 416.581,97.712 Q418.078,96.548 420.308,95.963 Q422.537,95.378 424.929,95.569 Q429.651,95.946 431.751,98.689 Q433.852,101.433 433.515,105.66 L432.697,115.915 Q432.655,116.441 432.766,116.667 Q432.876,116.892 433.219,117.016 Q434.002,117.271 434.538,117.988 Q435.075,118.705 434.997,119.678 Q434.904,120.842 433.967,121.53 Q433.03,122.217 431.483,122.078 Q430.018,121.945 429.17,120.995 Q428.323,120.045 428.445,118.513 L428.473,118.163 L428.329,118.151 Q427.049,119.927 424.949,120.795 Q422.849,121.663 420.188,121.418 z M421.186,116.554 Q422.781,116.681 424.234,116.075 Q425.686,115.468 426.618,114.259 Q427.549,113.049 427.672,111.502 L427.846,109.317 Q427.855,109.205 427.793,109.184 Q427.73,109.163 427.576,109.279 Q426.787,109.714 425.464,110.001 Q424.141,110.289 422.019,110.329 Q419.642,110.348 418.462,111.161 Q417.282,111.974 417.184,113.201 Q417.082,114.477 418.136,115.452 Q419.19,116.427 421.186,116.554 z" fill="#29431F"/>
      <path d="M448.608,124.917 Q445.302,124.313 443.272,122.071 Q441.243,119.829 440.575,116.674 Q439.908,113.518 440.527,110.134 Q441.151,106.719 442.972,104.01 Q444.793,101.302 447.542,99.966 Q450.291,98.631 453.612,99.238 Q456.114,99.696 457.701,101.027 Q459.287,102.358 460.26,104.422 L459.783,104.628 L461.752,93.863 Q461.965,92.698 462.886,92.062 Q463.808,91.425 464.941,91.632 Q466.106,91.845 466.742,92.767 Q467.379,93.688 467.166,94.853 L461.796,124.222 Q461.58,125.402 460.656,126.055 Q459.731,126.707 458.566,126.494 Q457.418,126.284 456.762,125.335 Q456.106,124.385 456.382,123.232 L456.682,121.855 L457.054,122.135 Q455.942,123.77 453.652,124.595 Q451.362,125.421 448.608,124.917 z M450.802,120.211 Q453.625,120.695 455.566,118.886 Q457.507,117.078 458.186,113.363 Q458.845,109.759 457.625,107.316 Q456.404,104.873 453.571,104.355 Q450.754,103.839 448.752,105.669 Q446.75,107.499 446.083,111.15 Q445.386,114.959 446.627,117.333 Q447.868,119.707 450.802,120.211 z" fill="#29431F"/>
      <path d="M470.742,129.513 Q469.581,129.212 469.019,128.223 Q468.457,127.235 468.746,126.12 L473.791,106.651 Q474.092,105.489 475.058,104.921 Q476.023,104.353 477.185,104.654 Q478.346,104.955 478.914,105.921 Q479.482,106.886 479.181,108.048 L474.136,127.516 Q473.847,128.632 472.875,129.223 Q471.904,129.814 470.742,129.513 z M477.931,101.773 Q479.325,102.135 480.338,101.48 Q481.351,100.825 481.748,99.292 Q482.157,97.712 481.584,96.671 Q481.011,95.63 479.617,95.268 Q478.223,94.907 477.217,95.539 Q476.21,96.17 475.8,97.75 Q475.403,99.284 475.97,100.348 Q476.537,101.412 477.931,101.773 z" fill="#29431F"/>
      <path d="M487.433,134.624 Q484.947,133.784 483.293,132.229 Q481.64,130.674 481.077,128.668 Q480.513,126.662 481.24,124.51 Q481.911,122.524 483.437,121.181 Q484.963,119.839 487.391,119.452 Q489.819,119.065 492.956,120.024 Q496.029,120.926 497.55,120.799 Q499.071,120.671 499.522,119.337 Q499.936,118.109 499.137,117.003 Q498.337,115.897 496.487,115.272 Q494.85,114.719 493.63,115.007 Q492.409,115.295 491.541,115.965 Q490.912,116.428 490.208,116.536 Q489.505,116.645 488.686,116.368 Q487.488,115.963 487.113,114.925 Q486.738,113.886 487.329,112.836 Q487.977,111.518 489.713,110.754 Q491.45,109.989 493.754,109.966 Q496.059,109.942 498.332,110.71 Q502.82,112.226 504.188,115.399 Q505.556,118.572 504.199,122.589 L500.906,132.336 Q500.737,132.836 500.789,133.082 Q500.841,133.327 501.144,133.531 Q501.841,133.969 502.186,134.795 Q502.532,135.621 502.219,136.546 Q501.845,137.653 500.769,138.091 Q499.692,138.529 498.226,138.017 Q496.837,137.531 496.247,136.403 Q495.657,135.274 496.149,133.819 L496.261,133.486 L496.125,133.44 Q494.45,134.85 492.202,135.18 Q489.954,135.509 487.433,134.624 z M489.586,130.149 Q491.102,130.661 492.659,130.427 Q494.216,130.193 495.414,129.247 Q496.612,128.301 497.108,126.831 L497.81,124.754 Q497.846,124.648 497.79,124.612 Q497.735,124.577 497.557,124.652 Q496.686,124.881 495.333,124.837 Q493.979,124.794 491.912,124.315 Q489.602,123.754 488.259,124.255 Q486.917,124.755 486.522,125.922 Q486.113,127.135 486.897,128.337 Q487.681,129.54 489.586,130.149 z" fill="#29431F"/>
    </g>
  </g>
</svg>
