<?xml version="1.0" encoding="UTF-8"?>
<!DOCTYPE svg PUBLIC "-//W3C//DTD SVG 1.1//EN" "http://www.w3.org/Graphics/SVG/1.1/DTD/svg11.dtd">
<svg version="1.1" xmlns="http://www.w3.org/2000/svg" xmlns:xlink="http://www.w3.org/1999/xlink" x="0" y="0" width="800" height="400" viewBox="0, 0, 800, 400">
  <g id="Background">
    <rect x="0" y="0" width="800" height="400" fill="#000000" fill-opacity="0"/>
  </g>
  <g id="nodes">
    <g>
      <g>
        <g>
          <path d="M124.7,82 L145.9,212.9" fill="#000000"/>
          <path d="M124.7,82 L145.9,212.9" fill-opacity="0" stroke="#555555" stroke-width="2" stroke-dasharray="5,5"/>
        </g>
        <g>
          <path d="M124.7,82 L209.4,169.3" fill="#000000"/>
          <path d="M124.7,82 L209.4,169.3" fill-opacity="0" stroke="#555555" stroke-width="2" stroke-dasharray="5,5"/>
        </g>
        <g>
          <path d="M124.7,82 L378.8,158.4" fill="#000000"/>
          <path d="M124.7,82 L378.8,158.4" fill-opacity="0" stroke="#555555" stroke-width="2" stroke-dasharray="5,5"/>
        </g>
        <g>
          <path d="M145.9,212.9 L209.4,169.3" fill="#000000"/>
          <path d="M145.9,212.9 L209.4,169.3" fill-opacity="0" stroke="#555555" stroke-width="2" stroke-dasharray="5,5"/>
        </g>
        <g>
          <path d="M145.9,212.9 L251.7,256.5" fill="#000000"/>
          <path d="M145.9,212.9 L251.7,256.5" fill-opacity="0" stroke="#555555" stroke-width="2" stroke-dasharray="5,5"/>
        </g>
        <g>
          <path d="M209.4,169.3 L251.7,256.5" fill="#000000"/>
          <path d="M209.4,169.3 L251.7,256.5" fill-opacity="0" stroke="#555555" stroke-width="2" stroke-dasharray="5,5"/>
        </g>
        <g>
          <path d="M209.4,169.3 L357.6,267.5" fill="#000000"/>
          <path d="M209.4,169.3 L357.6,267.5" fill-opacity="0" stroke="#555555" stroke-width="2" stroke-dasharray="5,5"/>
        </g>
        <g>
          <path d="M209.4,169.3 L378.8,158.4" fill="#000000"/>
          <path d="M209.4,169.3 L378.8,158.4" fill-opacity="0" stroke="#555555" stroke-width="2" stroke-dasharray="5,5"/>
        </g>
        <g>
          <path d="M251.7,256.5 L357.6,267.5" fill="#000000"/>
          <path d="M251.7,256.5 L357.6,267.5" fill-opacity="0" stroke="#555555" stroke-width="2" stroke-dasharray="5,5"/>
        </g>
        <g>
          <path d="M357.6,267.5 L378.8,158.4" fill="#000000"/>
          <path d="M357.6,267.5 L378.8,158.4" fill-opacity="0" stroke="#555555" stroke-width="2" stroke-dasharray="5,5"/>
        </g>
        <g>
          <path d="M357.6,267.5 L505.9,245.6" fill="#000000"/>
          <path d="M357.6,267.5 L505.9,245.6" fill-opacity="0" stroke="#555555" stroke-width="2" stroke-dasharray="5,5"/>
        </g>
        <g>
          <path d="M378.8,158.4 L516.5,125.6" fill="#000000"/>
          <path d="M378.8,158.4 L516.5,125.6" fill-opacity="0" stroke="#555555" stroke-width="2" stroke-dasharray="5,5"/>
        </g>
        <g>
          <path d="M378.8,158.4 L505.9,245.6" fill="#000000"/>
          <path d="M378.8,158.4 L505.9,245.6" fill-opacity="0" stroke="#555555" stroke-width="2" stroke-dasharray="5,5"/>
        </g>
        <g>
          <path d="M516.5,125.6 L505.9,245.6" fill="#000000"/>
          <path d="M516.5,125.6 L505.9,245.6" fill-opacity="0" stroke="#555555" stroke-width="2" stroke-dasharray="5,5"/>
        </g>
        <g>
          <path d="M516.5,125.6 L569.4,191.1" fill="#000000"/>
          <path d="M516.5,125.6 L569.4,191.1" fill-opacity="0" stroke="#555555" stroke-width="2" stroke-dasharray="5,5"/>
        </g>
        <g>
          <path d="M516.5,125.6 L675.3,114.7" fill="#000000"/>
          <path d="M516.5,125.6 L675.3,114.7" fill-opacity="0" stroke="#555555" stroke-width="2" stroke-dasharray="5,5"/>
        </g>
        <g>
          <path d="M505.9,245.6 L569.4,191.1" fill="#000000"/>
          <path d="M505.9,245.6 L569.4,191.1" fill-opacity="0" stroke="#555555" stroke-width="2" stroke-dasharray="5,5"/>
        </g>
        <g>
          <path d="M569.4,191.1 L675.3,114.7" fill="#000000"/>
          <path d="M569.4,191.1 L675.3,114.7" fill-opacity="0" stroke="#555555" stroke-width="2" stroke-dasharray="5,5"/>
        </g>
      </g>
      <g>
        <path d="M139.7,82 C139.7,90.284 132.984,97 124.7,97 C116.416,97 109.7,90.284 109.7,82 C109.7,73.716 116.416,67 124.7,67 C132.984,67 139.7,73.716 139.7,82 z" fill="#2E8B57"/>
        <path d="M139.7,82 C139.7,90.284 132.984,97 124.7,97 C116.416,97 109.7,90.284 109.7,82 C109.7,73.716 116.416,67 124.7,67 C132.984,67 139.7,73.716 139.7,82 z" fill-opacity="0" stroke="#000000" stroke-width="1"/>
      </g>
      <g>
        <path d="M89.7,102 L159.7,102 C162.461,102 164.7,104.239 164.7,107 L164.7,132 C164.7,134.761 162.461,137 159.7,137 L89.7,137 C86.939,137 84.7,134.761 84.7,132 L84.7,107 C84.7,104.239 86.939,102 89.7,102 z" fill="#2E8B57"/>
        <path d="M89.7,102 L159.7,102 C162.461,102 164.7,104.239 164.7,107 L164.7,132 C164.7,134.761 162.461,137 159.7,137 L89.7,137 C86.939,137 84.7,134.761 84.7,132 L84.7,107 C84.7,104.239 86.939,102 89.7,102 z" fill-opacity="0" stroke="#000000" stroke-width="1"/>
      </g>
      <text transform="matrix(1, 0, 0, 1, 124.7, 114)">
        <tspan x="-8.34" y="3" font-family="Helvetica" font-size="10" fill="#FFFFFF">[10]</tspan>
      </text>
      <text transform="matrix(1, 0, 0, 1, 124.7, 127)">
        <tspan x="-25.562" y="3" font-family="Helvetica" font-size="10" fill="#FFFFFF">CASCADIA</tspan>
      </text>
      <g>
        <path d="M160.9,212.9 C160.9,221.184 154.184,227.9 145.9,227.9 C137.616,227.9 130.9,221.184 130.9,212.9 C130.9,204.616 137.616,197.9 145.9,197.9 C154.184,197.9 160.9,204.616 160.9,212.9 z" fill="#20B2AA"/>
        <path d="M160.9,212.9 C160.9,221.184 154.184,227.9 145.9,227.9 C137.616,227.9 130.9,221.184 130.9,212.9 C130.9,204.616 137.616,197.9 145.9,197.9 C154.184,197.9 160.9,204.616 160.9,212.9 z" fill-opacity="0" stroke="#000000" stroke-width="1"/>
      </g>
      <g>
        <path d="M110.9,232.9 L180.9,232.9 C183.661,232.9 185.9,235.139 185.9,237.9 L185.9,262.9 C185.9,265.661 183.661,267.9 180.9,267.9 L110.9,267.9 C108.139,267.9 105.9,265.661 105.9,262.9 L105.9,237.9 C105.9,235.139 108.139,232.9 110.9,232.9 z" fill="#20B2AA"/>
        <path d="M110.9,232.9 L180.9,232.9 C183.661,232.9 185.9,235.139 185.9,237.9 L185.9,262.9 C185.9,265.661 183.661,267.9 180.9,267.9 L110.9,267.9 C108.139,267.9 105.9,265.661 105.9,262.9 L105.9,237.9 C105.9,235.139 108.139,232.9 110.9,232.9 z" fill-opacity="0" stroke="#000000" stroke-width="1"/>
      </g>
      <text transform="matrix(1, 0, 0, 1, 145.9, 244.9)">
        <tspan x="-8.34" y="3" font-family="Helvetica" font-size="10" fill="#FFFFFF">[09]</tspan>
      </text>
      <text transform="matrix(1, 0, 0, 1, 145.9, 257.9)">
        <tspan x="-11.768" y="3" font-family="Helvetica" font-size="10" fill="#FFFFFF">ALTA</tspan>
      </text>
      <g>
        <path d="M224.4,169.3 C224.4,177.584 217.684,184.3 209.4,184.3 C201.116,184.3 194.4,177.584 194.4,169.3 C194.4,161.016 201.116,154.3 209.4,154.3 C217.684,154.3 224.4,161.016 224.4,169.3 z" fill="#CD853F"/>
        <path d="M224.4,169.3 C224.4,177.584 217.684,184.3 209.4,184.3 C201.116,184.3 194.4,177.584 194.4,169.3 C194.4,161.016 201.116,154.3 209.4,154.3 C217.684,154.3 224.4,161.016 224.4,169.3 z" fill-opacity="0" stroke="#000000" stroke-width="1"/>
      </g>
      <g>
        <path d="M174.4,189.3 L244.4,189.3 C247.161,189.3 249.4,191.539 249.4,194.3 L249.4,219.3 C249.4,222.061 247.161,224.3 244.4,224.3 L174.4,224.3 C171.639,224.3 169.4,222.061 169.4,219.3 L169.4,194.3 C169.4,191.539 171.639,189.3 174.4,189.3 z" fill="#CD853F"/>
        <path d="M174.4,189.3 L244.4,189.3 C247.161,189.3 249.4,191.539 249.4,194.3 L249.4,219.3 C249.4,222.061 247.161,224.3 244.4,224.3 L174.4,224.3 C171.639,224.3 169.4,222.061 169.4,219.3 L169.4,194.3 C169.4,191.539 171.639,189.3 174.4,189.3 z" fill-opacity="0" stroke="#000000" stroke-width="1"/>
      </g>
      <text transform="matrix(1, 0, 0, 1, 209.4, 201.3)">
        <tspan x="-8.34" y="3" font-family="Helvetica" font-size="10" fill="#FFFFFF">[08]</tspan>
      </text>
      <text transform="matrix(1, 0, 0, 1, 209.4, 214.3)">
        <tspan x="-15.005" y="3" font-family="Helvetica" font-size="10" fill="#FFFFFF">BASIN</tspan>
      </text>
      <g>
        <path d="M266.7,256.5 C266.7,264.784 259.984,271.5 251.7,271.5 C243.416,271.5 236.7,264.784 236.7,256.5 C236.7,248.216 243.416,241.5 251.7,241.5 C259.984,241.5 266.7,248.216 266.7,256.5 z" fill="#D2691E"/>
        <path d="M266.7,256.5 C266.7,264.784 259.984,271.5 251.7,271.5 C243.416,271.5 236.7,264.784 236.7,256.5 C236.7,248.216 243.416,241.5 251.7,241.5 C259.984,241.5 266.7,248.216 266.7,256.5 z" fill-opacity="0" stroke="#000000" stroke-width="1"/>
      </g>
      <g>
        <path d="M216.7,276.5 L286.7,276.5 C289.461,276.5 291.7,278.739 291.7,281.5 L291.7,306.5 C291.7,309.261 289.461,311.5 286.7,311.5 L216.7,311.5 C213.939,311.5 211.7,309.261 211.7,306.5 L211.7,281.5 C211.7,278.739 213.939,276.5 216.7,276.5 z" fill="#D2691E"/>
        <path d="M216.7,276.5 L286.7,276.5 C289.461,276.5 291.7,278.739 291.7,281.5 L291.7,306.5 C291.7,309.261 289.461,311.5 286.7,311.5 L216.7,311.5 C213.939,311.5 211.7,309.261 211.7,306.5 L211.7,281.5 C211.7,278.739 213.939,276.5 216.7,276.5 z" fill-opacity="0" stroke="#000000" stroke-width="1"/>
      </g>
      <text transform="matrix(1, 0, 0, 1, 251.7, 288.5)">
        <tspan x="-8.34" y="3" font-family="Helvetica" font-size="10" fill="#FFFFFF">[07]</tspan>
      </text>
      <text transform="matrix(1, 0, 0, 1, 251.7, 301.5)">
        <tspan x="-25.281" y="3" font-family="Helvetica" font-size="10" fill="#FFFFFF">SONORAN</tspan>
      </text>
      <g>
        <path d="M372.6,267.5 C372.6,275.784 365.884,282.5 357.6,282.5 C349.316,282.5 342.6,275.784 342.6,267.5 C342.6,259.216 349.316,252.5 357.6,252.5 C365.884,252.5 372.6,259.216 372.6,267.5 z" fill="#DAA520"/>
        <path d="M372.6,267.5 C372.6,275.784 365.884,282.5 357.6,282.5 C349.316,282.5 342.6,275.784 342.6,267.5 C342.6,259.216 349.316,252.5 357.6,252.5 C365.884,252.5 372.6,259.216 372.6,267.5 z" fill-opacity="0" stroke="#000000" stroke-width="1"/>
      </g>
      <g>
        <path d="M322.6,287.5 L392.6,287.5 C395.361,287.5 397.6,289.739 397.6,292.5 L397.6,317.5 C397.6,320.261 395.361,322.5 392.6,322.5 L322.6,322.5 C319.839,322.5 317.6,320.261 317.6,317.5 L317.6,292.5 C317.6,289.739 319.839,287.5 322.6,287.5 z" fill="#DAA520"/>
        <path d="M322.6,287.5 L392.6,287.5 C395.361,287.5 397.6,289.739 397.6,292.5 L397.6,317.5 C397.6,320.261 395.361,322.5 392.6,322.5 L322.6,322.5 C319.839,322.5 317.6,320.261 317.6,317.5 L317.6,292.5 C317.6,289.739 319.839,287.5 322.6,287.5 z" fill-opacity="0" stroke="#000000" stroke-width="1"/>
      </g>
      <text transform="matrix(1, 0, 0, 1, 357.6, 299.5)">
        <tspan x="-8.34" y="3" font-family="Helvetica" font-size="10" fill="#FFFFFF">[06]</tspan>
      </text>
      <text transform="matrix(1, 0, 0, 1, 357.6, 312.5)">
        <tspan x="-31.67" y="3" font-family="Helvetica" font-size="10" fill="#FFFFFF">RIO GRANDE</tspan>
      </text>
      <g>
        <path d="M393.8,158.4 C393.8,166.684 387.084,173.4 378.8,173.4 C370.516,173.4 363.8,166.684 363.8,158.4 C363.8,150.116 370.516,143.4 378.8,143.4 C387.084,143.4 393.8,150.116 393.8,158.4 z" fill="#F4A460"/>
        <path d="M393.8,158.4 C393.8,166.684 387.084,173.4 378.8,173.4 C370.516,173.4 363.8,166.684 363.8,158.4 C363.8,150.116 370.516,143.4 378.8,143.4 C387.084,143.4 393.8,150.116 393.8,158.4 z" fill-opacity="0" stroke="#000000" stroke-width="1"/>
      </g>
      <g>
        <path d="M343.8,178.4 L413.8,178.4 C416.561,178.4 418.8,180.639 418.8,183.4 L418.8,208.4 C418.8,211.161 416.561,213.4 413.8,213.4 L343.8,213.4 C341.039,213.4 338.8,211.161 338.8,208.4 L338.8,183.4 C338.8,180.639 341.039,178.4 343.8,178.4 z" fill="#F4A460"/>
        <path d="M343.8,178.4 L413.8,178.4 C416.561,178.4 418.8,180.639 418.8,183.4 L418.8,208.4 C418.8,211.161 416.561,213.4 413.8,213.4 L343.8,213.4 C341.039,213.4 338.8,211.161 338.8,208.4 L338.8,183.4 C338.8,180.639 341.039,178.4 343.8,178.4 z" fill-opacity="0" stroke="#000000" stroke-width="1"/>
      </g>
      <text transform="matrix(1, 0, 0, 1, 378.8, 190.4)">
        <tspan x="-8.34" y="3" font-family="Helvetica" font-size="10" fill="#FFFFFF">[05]</tspan>
      </text>
      <text transform="matrix(1, 0, 0, 1, 378.8, 203.4)">
        <tspan x="-30.195" y="3" font-family="Helvetica" font-size="10" fill="#FFFFFF">HEARTLAND</tspan>
      </text>
      <g>
        <path d="M531.5,125.6 C531.5,133.884 524.784,140.6 516.5,140.6 C508.216,140.6 501.5,133.884 501.5,125.6 C501.5,117.316 508.216,110.6 516.5,110.6 C524.784,110.6 531.5,117.316 531.5,125.6 z" fill="#4682B4"/>
        <path d="M531.5,125.6 C531.5,133.884 524.784,140.6 516.5,140.6 C508.216,140.6 501.5,133.884 501.5,125.6 C501.5,117.316 508.216,110.6 516.5,110.6 C524.784,110.6 531.5,117.316 531.5,125.6 z" fill-opacity="0" stroke="#000000" stroke-width="1"/>
      </g>
      <g>
        <path d="M481.5,145.6 L551.5,145.6 C554.261,145.6 556.5,147.839 556.5,150.6 L556.5,175.6 C556.5,178.361 554.261,180.6 551.5,180.6 L481.5,180.6 C478.739,180.6 476.5,178.361 476.5,175.6 L476.5,150.6 C476.5,147.839 478.739,145.6 481.5,145.6 z" fill="#4682B4"/>
        <path d="M481.5,145.6 L551.5,145.6 C554.261,145.6 556.5,147.839 556.5,150.6 L556.5,175.6 C556.5,178.361 554.261,180.6 551.5,180.6 L481.5,180.6 C478.739,180.6 476.5,178.361 476.5,175.6 L476.5,150.6 C476.5,147.839 478.739,145.6 481.5,145.6 z" fill-opacity="0" stroke="#000000" stroke-width="1"/>
      </g>
      <text transform="matrix(1, 0, 0, 1, 516.5, 157.6)">
        <tspan x="-8.34" y="3" font-family="Helvetica" font-size="10" fill="#FFFFFF">[04]</tspan>
      </text>
      <text transform="matrix(1, 0, 0, 1, 516.5, 170.6)">
        <tspan x="-31.672" y="3" font-family="Helvetica" font-size="10" fill="#FFFFFF">LAURENTIAN</tspan>
      </text>
      <g>
        <path d="M520.9,245.6 C520.9,253.884 514.184,260.6 505.9,260.6 C497.616,260.6 490.9,253.884 490.9,245.6 C490.9,237.316 497.616,230.6 505.9,230.6 C514.184,230.6 520.9,237.316 520.9,245.6 z" fill="#5F9EA0"/>
        <path d="M520.9,245.6 C520.9,253.884 514.184,260.6 505.9,260.6 C497.616,260.6 490.9,253.884 490.9,245.6 C490.9,237.316 497.616,230.6 505.9,230.6 C514.184,230.6 520.9,237.316 520.9,245.6 z" fill-opacity="0" stroke="#000000" stroke-width="1"/>
      </g>
      <g>
        <path d="M470.9,265.6 L540.9,265.6 C543.661,265.6 545.9,267.839 545.9,270.6 L545.9,295.6 C545.9,298.361 543.661,300.6 540.9,300.6 L470.9,300.6 C468.139,300.6 465.9,298.361 465.9,295.6 L465.9,270.6 C465.9,267.839 468.139,265.6 470.9,265.6 z" fill="#5F9EA0"/>
        <path d="M470.9,265.6 L540.9,265.6 C543.661,265.6 545.9,267.839 545.9,270.6 L545.9,295.6 C545.9,298.361 543.661,300.6 540.9,300.6 L470.9,300.6 C468.139,300.6 465.9,298.361 465.9,295.6 L465.9,270.6 C465.9,267.839 468.139,265.6 470.9,265.6 z" fill-opacity="0" stroke="#000000" stroke-width="1"/>
      </g>
      <text transform="matrix(1, 0, 0, 1, 505.9, 277.6)">
        <tspan x="-8.34" y="3" font-family="Helvetica" font-size="10" fill="#FFFFFF">[03]</tspan>
      </text>
      <text transform="matrix(1, 0, 0, 1, 505.9, 290.6)">
        <tspan x="-24.446" y="3" font-family="Helvetica" font-size="10" fill="#FFFFFF">MERIDIAN</tspan>
      </text>
      <g>
        <path d="M584.4,191.1 C584.4,199.384 577.684,206.1 569.4,206.1 C561.116,206.1 554.4,199.384 554.4,191.1 C554.4,182.816 561.116,176.1 569.4,176.1 C577.684,176.1 584.4,182.816 584.4,191.1 z" fill="#483D8B"/>
        <path d="M584.4,191.1 C584.4,199.384 577.684,206.1 569.4,206.1 C561.116,206.1 554.4,199.384 554.4,191.1 C554.4,182.816 561.116,176.1 569.4,176.1 C577.684,176.1 584.4,182.816 584.4,191.1 z" fill-opacity="0" stroke="#000000" stroke-width="1"/>
      </g>
      <g>
        <path d="M534.4,211.1 L604.4,211.1 C607.161,211.1 609.4,213.339 609.4,216.1 L609.4,241.1 C609.4,243.861 607.161,246.1 604.4,246.1 L534.4,246.1 C531.639,246.1 529.4,243.861 529.4,241.1 L529.4,216.1 C529.4,213.339 531.639,211.1 534.4,211.1 z" fill="#483D8B"/>
        <path d="M534.4,211.1 L604.4,211.1 C607.161,211.1 609.4,213.339 609.4,216.1 L609.4,241.1 C609.4,243.861 607.161,246.1 604.4,246.1 L534.4,246.1 C531.639,246.1 529.4,243.861 529.4,241.1 L529.4,216.1 C529.4,213.339 531.639,211.1 534.4,211.1 z" fill-opacity="0" stroke="#000000" stroke-width="1"/>
      </g>
      <text transform="matrix(1, 0, 0, 1, 569.4, 223.1)">
        <tspan x="-8.34" y="3" font-family="Helvetica" font-size="10" fill="#FFFFFF">[02]</tspan>
      </text>
      <text transform="matrix(1, 0, 0, 1, 569.4, 236.1)">
        <tspan x="-34.644" y="3" font-family="Helvetica" font-size="10" fill="#FFFFFF">APPALACHIAN</tspan>
      </text>
      <g>
        <path d="M690.3,114.7 C690.3,122.984 683.584,129.7 675.3,129.7 C667.016,129.7 660.3,122.984 660.3,114.7 C660.3,106.416 667.016,99.7 675.3,99.7 C683.584,99.7 690.3,106.416 690.3,114.7 z" fill="#191970"/>
        <path d="M690.3,114.7 C690.3,122.984 683.584,129.7 675.3,129.7 C667.016,129.7 660.3,122.984 660.3,114.7 C660.3,106.416 667.016,99.7 675.3,99.7 C683.584,99.7 690.3,106.416 690.3,114.7 z" fill-opacity="0" stroke="#000000" stroke-width="1"/>
      </g>
      <g>
        <path d="M640.3,134.7 L710.3,134.7 C713.061,134.7 715.3,136.939 715.3,139.7 L715.3,164.7 C715.3,167.461 713.061,169.7 710.3,169.7 L640.3,169.7 C637.539,169.7 635.3,167.461 635.3,164.7 L635.3,139.7 C635.3,136.939 637.539,134.7 640.3,134.7 z" fill="#191970"/>
        <path d="M640.3,134.7 L710.3,134.7 C713.061,134.7 715.3,136.939 715.3,139.7 L715.3,164.7 C715.3,167.461 713.061,169.7 710.3,169.7 L640.3,169.7 C637.539,169.7 635.3,167.461 635.3,164.7 L635.3,139.7 C635.3,136.939 637.539,134.7 640.3,134.7 z" fill-opacity="0" stroke="#000000" stroke-width="1"/>
      </g>
      <text transform="matrix(1, 0, 0, 1, 675.3, 146.7)">
        <tspan x="-8.34" y="3" font-family="Helvetica" font-size="10" fill="#FFFFFF">[01]</tspan>
      </text>
      <text transform="matrix(1, 0, 0, 1, 675.3, 159.7)">
        <tspan x="-22.227" y="3" font-family="Helvetica" font-size="10" fill="#FFFFFF">ACADIAN</tspan>
      </text>
    </g>
    <text transform="matrix(1, 0, 0, 1, 400, 37)">
      <tspan x="-205.594" y="8" font-family="Helvetica" font-size="24" fill="#193614">APS BIOREGIONAL COMMAND MAP</tspan>
    </text>
  </g>
</svg>
